<svg id="visual" viewBox="0 0 900 120" width="900" height="120" xmlns="http://www.w3.org/2000/svg" xmlns:xlink="http://www.w3.org/1999/xlink" version="1.1"><rect x="0" y="0" width="900" height="120" fill="#1f1f38"></rect><path d="M0 89L21.5 84.7C43 80.3 86 71.7 128.8 65.8C171.7 60 214.3 57 257.2 61C300 65 343 76 385.8 79.8C428.7 83.7 471.3 80.3 514.2 79.8C557 79.3 600 81.7 642.8 83C685.7 84.3 728.3 84.7 771.2 79.3C814 74 857 63 878.5 57.5L900 52L900 121L878.5 121C857 121 814 121 771.2 121C728.3 121 685.7 121 642.8 121C600 121 557 121 514.2 121C471.3 121 428.7 121 385.8 121C343 121 300 121 257.2 121C214.3 121 171.7 121 128.8 121C86 121 43 121 21.5 121L0 121Z" fill="#2c2c6c" stroke-linecap="round" stroke-linejoin="miter"></path></svg>