<svg width="375" height="812" viewBox="0 0 375 812" fill="none" xmlns="http://www.w3.org/2000/svg">
<g clip-path="url(#clip0)">
<rect width="375" height="812" fill="#15085F"/>
<path d="M62.623 530.08C62.623 531.076 62.252 531.844 61.5098 532.385C60.7676 532.925 59.7259 533.195 58.3848 533.195C56.9655 533.195 55.8587 532.971 55.0645 532.521V531.018C55.5788 531.278 56.1289 531.483 56.7148 531.633C57.3073 531.783 57.877 531.857 58.4238 531.857C59.2702 531.857 59.9212 531.724 60.377 531.457C60.8327 531.184 61.0605 530.77 61.0605 530.217C61.0605 529.8 60.8783 529.445 60.5137 529.152C60.1556 528.853 59.4525 528.501 58.4043 528.098C57.4082 527.727 56.6986 527.404 56.2754 527.131C55.8587 526.851 55.5462 526.535 55.3379 526.184C55.1361 525.832 55.0352 525.412 55.0352 524.924C55.0352 524.051 55.39 523.365 56.0996 522.863C56.8092 522.355 57.7826 522.102 59.0195 522.102C60.1719 522.102 61.2982 522.336 62.3984 522.805L61.8223 524.123C60.748 523.68 59.7747 523.459 58.9023 523.459C58.1341 523.459 57.5547 523.579 57.1641 523.82C56.7734 524.061 56.5781 524.393 56.5781 524.816C56.5781 525.103 56.6497 525.347 56.793 525.549C56.9427 525.751 57.1803 525.943 57.5059 526.125C57.8314 526.307 58.4564 526.571 59.3809 526.916C60.6504 527.378 61.5065 527.844 61.9492 528.312C62.3984 528.781 62.623 529.37 62.623 530.08ZM66.8906 533H65.2695V522.297H66.8906V533ZM65.1328 519.396C65.1328 519.025 65.224 518.755 65.4062 518.586C65.5885 518.41 65.8164 518.322 66.0898 518.322C66.3503 518.322 66.5749 518.41 66.7637 518.586C66.9525 518.762 67.0469 519.032 67.0469 519.396C67.0469 519.761 66.9525 520.035 66.7637 520.217C66.5749 520.393 66.3503 520.48 66.0898 520.48C65.8164 520.48 65.5885 520.393 65.4062 520.217C65.224 520.035 65.1328 519.761 65.1328 519.396ZM72.9062 527.521L69.1855 522.297H71.0312L73.8535 526.398L76.666 522.297H78.4922L74.7715 527.521L78.6875 533H76.8516L73.8535 528.664L70.8262 533H68.9902L72.9062 527.521ZM84.2734 531.857C84.5599 531.857 84.8366 531.838 85.1035 531.799C85.3704 531.753 85.582 531.708 85.7383 531.662V532.902C85.5625 532.987 85.3021 533.055 84.957 533.107C84.6185 533.166 84.3125 533.195 84.0391 533.195C81.9688 533.195 80.9336 532.105 80.9336 529.924V523.557H79.4004V522.775L80.9336 522.102L81.6172 519.816H82.5547V522.297H85.6602V523.557H82.5547V529.855C82.5547 530.5 82.7077 530.995 83.0137 531.34C83.3197 531.685 83.7396 531.857 84.2734 531.857ZM92.4082 533.195C90.8262 533.195 89.5762 532.714 88.6582 531.75C87.7467 530.786 87.291 529.449 87.291 527.736C87.291 526.011 87.7142 524.641 88.5605 523.625C89.4134 522.609 90.556 522.102 91.9883 522.102C93.3294 522.102 94.3906 522.544 95.1719 523.43C95.9531 524.309 96.3438 525.471 96.3438 526.916V527.941H88.9707C89.0033 529.198 89.319 530.152 89.918 530.803C90.5234 531.454 91.373 531.779 92.4668 531.779C93.6191 531.779 94.7585 531.538 95.8848 531.057V532.502C95.3118 532.749 94.7682 532.925 94.2539 533.029C93.7461 533.14 93.1309 533.195 92.4082 533.195ZM91.9688 523.459C91.1094 523.459 90.4225 523.739 89.9082 524.299C89.4004 524.859 89.1009 525.633 89.0098 526.623H94.6055C94.6055 525.601 94.3776 524.82 93.9219 524.279C93.4661 523.732 92.8151 523.459 91.9688 523.459ZM106.441 533V526.076C106.441 525.204 106.243 524.553 105.846 524.123C105.449 523.693 104.827 523.479 103.98 523.479C102.861 523.479 102.04 523.781 101.52 524.387C100.999 524.992 100.738 525.992 100.738 527.385V533H99.1172V522.297H100.436L100.699 523.762H100.777C101.109 523.234 101.575 522.827 102.174 522.541C102.773 522.248 103.44 522.102 104.176 522.102C105.465 522.102 106.435 522.414 107.086 523.039C107.737 523.658 108.062 524.65 108.062 526.018V533H106.441ZM111.168 531.965C111.168 531.529 111.266 531.2 111.461 530.979C111.663 530.751 111.949 530.637 112.32 530.637C112.698 530.637 112.991 530.751 113.199 530.979C113.414 531.2 113.521 531.529 113.521 531.965C113.521 532.388 113.414 532.714 113.199 532.941C112.984 533.169 112.691 533.283 112.32 533.283C111.988 533.283 111.712 533.182 111.49 532.98C111.275 532.772 111.168 532.434 111.168 531.965ZM123.639 530.08C123.639 531.076 123.268 531.844 122.525 532.385C121.783 532.925 120.742 533.195 119.4 533.195C117.981 533.195 116.874 532.971 116.08 532.521V531.018C116.594 531.278 117.145 531.483 117.73 531.633C118.323 531.783 118.893 531.857 119.439 531.857C120.286 531.857 120.937 531.724 121.393 531.457C121.848 531.184 122.076 530.77 122.076 530.217C122.076 529.8 121.894 529.445 121.529 529.152C121.171 528.853 120.468 528.501 119.42 528.098C118.424 527.727 117.714 527.404 117.291 527.131C116.874 526.851 116.562 526.535 116.354 526.184C116.152 525.832 116.051 525.412 116.051 524.924C116.051 524.051 116.406 523.365 117.115 522.863C117.825 522.355 118.798 522.102 120.035 522.102C121.188 522.102 122.314 522.336 123.414 522.805L122.838 524.123C121.764 523.68 120.79 523.459 119.918 523.459C119.15 523.459 118.57 523.579 118.18 523.82C117.789 524.061 117.594 524.393 117.594 524.816C117.594 525.103 117.665 525.347 117.809 525.549C117.958 525.751 118.196 525.943 118.521 526.125C118.847 526.307 119.472 526.571 120.396 526.916C121.666 527.378 122.522 527.844 122.965 528.312C123.414 528.781 123.639 529.37 123.639 530.08ZM128.629 533L124.566 522.297H126.305L128.609 528.645C129.13 530.129 129.436 531.092 129.527 531.535H129.605C129.677 531.19 129.902 530.477 130.279 529.396C130.663 528.309 131.52 525.943 132.848 522.297H134.586L130.523 533H128.629ZM140.826 533.195C139.244 533.195 137.994 532.714 137.076 531.75C136.165 530.786 135.709 529.449 135.709 527.736C135.709 526.011 136.132 524.641 136.979 523.625C137.831 522.609 138.974 522.102 140.406 522.102C141.747 522.102 142.809 522.544 143.59 523.43C144.371 524.309 144.762 525.471 144.762 526.916V527.941H137.389C137.421 529.198 137.737 530.152 138.336 530.803C138.941 531.454 139.791 531.779 140.885 531.779C142.037 531.779 143.176 531.538 144.303 531.057V532.502C143.73 532.749 143.186 532.925 142.672 533.029C142.164 533.14 141.549 533.195 140.826 533.195ZM140.387 523.459C139.527 523.459 138.84 523.739 138.326 524.299C137.818 524.859 137.519 525.633 137.428 526.623H143.023C143.023 525.601 142.796 524.82 142.34 524.279C141.884 523.732 141.233 523.459 140.387 523.459ZM154.859 533V526.076C154.859 525.204 154.661 524.553 154.264 524.123C153.867 523.693 153.245 523.479 152.398 523.479C151.279 523.479 150.458 523.781 149.938 524.387C149.417 524.992 149.156 525.992 149.156 527.385V533H147.535V522.297H148.854L149.117 523.762H149.195C149.527 523.234 149.993 522.827 150.592 522.541C151.191 522.248 151.858 522.102 152.594 522.102C153.883 522.102 154.853 522.414 155.504 523.039C156.155 523.658 156.48 524.65 156.48 526.018V533H154.859ZM166.725 530.08C166.725 531.076 166.354 531.844 165.611 532.385C164.869 532.925 163.827 533.195 162.486 533.195C161.067 533.195 159.96 532.971 159.166 532.521V531.018C159.68 531.278 160.23 531.483 160.816 531.633C161.409 531.783 161.979 531.857 162.525 531.857C163.372 531.857 164.023 531.724 164.479 531.457C164.934 531.184 165.162 530.77 165.162 530.217C165.162 529.8 164.98 529.445 164.615 529.152C164.257 528.853 163.554 528.501 162.506 528.098C161.51 527.727 160.8 527.404 160.377 527.131C159.96 526.851 159.648 526.535 159.439 526.184C159.238 525.832 159.137 525.412 159.137 524.924C159.137 524.051 159.492 523.365 160.201 522.863C160.911 522.355 161.884 522.102 163.121 522.102C164.273 522.102 165.4 522.336 166.5 522.805L165.924 524.123C164.85 523.68 163.876 523.459 163.004 523.459C162.236 523.459 161.656 523.579 161.266 523.82C160.875 524.061 160.68 524.393 160.68 524.816C160.68 525.103 160.751 525.347 160.895 525.549C161.044 525.751 161.282 525.943 161.607 526.125C161.933 526.307 162.558 526.571 163.482 526.916C164.752 527.378 165.608 527.844 166.051 528.312C166.5 528.781 166.725 529.37 166.725 530.08ZM176.275 530.08C176.275 531.076 175.904 531.844 175.162 532.385C174.42 532.925 173.378 533.195 172.037 533.195C170.618 533.195 169.511 532.971 168.717 532.521V531.018C169.231 531.278 169.781 531.483 170.367 531.633C170.96 531.783 171.529 531.857 172.076 531.857C172.923 531.857 173.574 531.724 174.029 531.457C174.485 531.184 174.713 530.77 174.713 530.217C174.713 529.8 174.531 529.445 174.166 529.152C173.808 528.853 173.105 528.501 172.057 528.098C171.061 527.727 170.351 527.404 169.928 527.131C169.511 526.851 169.199 526.535 168.99 526.184C168.788 525.832 168.688 525.412 168.688 524.924C168.688 524.051 169.042 523.365 169.752 522.863C170.462 522.355 171.435 522.102 172.672 522.102C173.824 522.102 174.951 522.336 176.051 522.805L175.475 524.123C174.4 523.68 173.427 523.459 172.555 523.459C171.786 523.459 171.207 523.579 170.816 523.82C170.426 524.061 170.23 524.393 170.23 524.816C170.23 525.103 170.302 525.347 170.445 525.549C170.595 525.751 170.833 525.943 171.158 526.125C171.484 526.307 172.109 526.571 173.033 526.916C174.303 527.378 175.159 527.844 175.602 528.312C176.051 528.781 176.275 529.37 176.275 530.08ZM188.16 527.639C188.16 529.383 187.721 530.747 186.842 531.73C185.963 532.707 184.749 533.195 183.199 533.195C182.242 533.195 181.393 532.971 180.65 532.521C179.908 532.072 179.335 531.428 178.932 530.588C178.528 529.748 178.326 528.765 178.326 527.639C178.326 525.894 178.762 524.536 179.635 523.566C180.507 522.59 181.718 522.102 183.268 522.102C184.765 522.102 185.953 522.6 186.832 523.596C187.717 524.592 188.16 525.939 188.16 527.639ZM180.006 527.639C180.006 529.006 180.279 530.048 180.826 530.764C181.373 531.48 182.177 531.838 183.238 531.838C184.299 531.838 185.104 531.483 185.65 530.773C186.204 530.057 186.48 529.012 186.48 527.639C186.48 526.278 186.204 525.246 185.65 524.543C185.104 523.833 184.293 523.479 183.219 523.479C182.158 523.479 181.357 523.827 180.816 524.523C180.276 525.22 180.006 526.258 180.006 527.639ZM198.336 533V526.076C198.336 525.204 198.137 524.553 197.74 524.123C197.343 523.693 196.721 523.479 195.875 523.479C194.755 523.479 193.935 523.781 193.414 524.387C192.893 524.992 192.633 525.992 192.633 527.385V533H191.012V522.297H192.33L192.594 523.762H192.672C193.004 523.234 193.469 522.827 194.068 522.541C194.667 522.248 195.335 522.102 196.07 522.102C197.359 522.102 198.329 522.414 198.98 523.039C199.632 523.658 199.957 524.65 199.957 526.018V533H198.336Z" fill="#FFBD21"/>
<path d="M283.02 45.2012C283.02 46.4577 282.564 47.4375 281.652 48.1406C280.741 48.8438 279.504 49.1953 277.941 49.1953C276.249 49.1953 274.947 48.9772 274.035 48.541V46.9395C274.621 47.1868 275.259 47.3822 275.949 47.5254C276.639 47.6686 277.323 47.7402 278 47.7402C279.107 47.7402 279.94 47.5319 280.5 47.1152C281.06 46.6921 281.34 46.1061 281.34 45.3574C281.34 44.8626 281.239 44.459 281.037 44.1465C280.842 43.8275 280.51 43.5345 280.041 43.2676C279.579 43.0007 278.872 42.6979 277.922 42.3594C276.594 41.8841 275.643 41.321 275.07 40.6699C274.504 40.0189 274.221 39.1693 274.221 38.1211C274.221 37.0208 274.634 36.1452 275.461 35.4941C276.288 34.8431 277.382 34.5176 278.742 34.5176C280.161 34.5176 281.467 34.778 282.658 35.2988L282.141 36.7441C280.962 36.2493 279.816 36.002 278.703 36.002C277.824 36.002 277.137 36.1908 276.643 36.5684C276.148 36.946 275.9 37.4701 275.9 38.1406C275.9 38.6354 275.992 39.0423 276.174 39.3613C276.356 39.6738 276.662 39.9635 277.092 40.2305C277.528 40.4909 278.192 40.7806 279.084 41.0996C280.581 41.6335 281.61 42.2064 282.17 42.8184C282.736 43.4303 283.02 44.2246 283.02 45.2012ZM287.316 49H285.695V38.2969H287.316V49ZM285.559 35.3965C285.559 35.0254 285.65 34.7552 285.832 34.5859C286.014 34.4102 286.242 34.3223 286.516 34.3223C286.776 34.3223 287.001 34.4102 287.189 34.5859C287.378 34.7617 287.473 35.0319 287.473 35.3965C287.473 35.7611 287.378 36.0345 287.189 36.2168C287.001 36.3926 286.776 36.4805 286.516 36.4805C286.242 36.4805 286.014 36.3926 285.832 36.2168C285.65 36.0345 285.559 35.7611 285.559 35.3965ZM299.514 38.2969V39.3223L297.531 39.5566C297.714 39.7845 297.876 40.084 298.02 40.4551C298.163 40.8197 298.234 41.2331 298.234 41.6953C298.234 42.7435 297.876 43.5801 297.16 44.2051C296.444 44.8301 295.461 45.1426 294.211 45.1426C293.892 45.1426 293.592 45.1165 293.312 45.0645C292.622 45.429 292.277 45.888 292.277 46.4414C292.277 46.7344 292.398 46.9525 292.639 47.0957C292.88 47.2324 293.293 47.3008 293.879 47.3008H295.773C296.932 47.3008 297.821 47.5449 298.439 48.0332C299.064 48.5215 299.377 49.2311 299.377 50.1621C299.377 51.347 298.902 52.2487 297.951 52.8672C297.001 53.4922 295.614 53.8047 293.791 53.8047C292.391 53.8047 291.311 53.5443 290.549 53.0234C289.794 52.5026 289.416 51.7669 289.416 50.8164C289.416 50.1654 289.624 49.6022 290.041 49.127C290.458 48.6517 291.044 48.3294 291.799 48.1602C291.525 48.0365 291.294 47.8444 291.105 47.584C290.923 47.3236 290.832 47.0208 290.832 46.6758C290.832 46.2852 290.936 45.9434 291.145 45.6504C291.353 45.3574 291.682 45.0742 292.131 44.8008C291.577 44.5729 291.125 44.1855 290.773 43.6387C290.428 43.0918 290.256 42.4668 290.256 41.7637C290.256 40.5918 290.607 39.6901 291.311 39.0586C292.014 38.4206 293.01 38.1016 294.299 38.1016C294.859 38.1016 295.363 38.1667 295.812 38.2969H299.514ZM290.979 50.7969C290.979 51.3763 291.223 51.8158 291.711 52.1152C292.199 52.4147 292.899 52.5645 293.811 52.5645C295.171 52.5645 296.177 52.3594 296.828 51.9492C297.486 51.5456 297.814 50.9954 297.814 50.2988C297.814 49.7194 297.635 49.3158 297.277 49.0879C296.919 48.8665 296.245 48.7559 295.256 48.7559H293.312C292.577 48.7559 292.004 48.9316 291.594 49.2832C291.184 49.6348 290.979 50.1393 290.979 50.7969ZM291.857 41.7246C291.857 42.4733 292.069 43.0397 292.492 43.4238C292.915 43.8079 293.505 44 294.26 44C295.842 44 296.633 43.2318 296.633 41.6953C296.633 40.0872 295.832 39.2832 294.23 39.2832C293.469 39.2832 292.883 39.4883 292.473 39.8984C292.062 40.3086 291.857 40.9173 291.857 41.7246ZM309.035 49V42.0762C309.035 41.2038 308.837 40.5527 308.439 40.123C308.042 39.6934 307.421 39.4785 306.574 39.4785C305.454 39.4785 304.634 39.7812 304.113 40.3867C303.592 40.9922 303.332 41.9915 303.332 43.3848V49H301.711V38.2969H303.029L303.293 39.7617H303.371C303.703 39.2344 304.169 38.8275 304.768 38.541C305.367 38.248 306.034 38.1016 306.77 38.1016C308.059 38.1016 309.029 38.4141 309.68 39.0391C310.331 39.6576 310.656 40.6504 310.656 42.0176V49H309.035ZM320.715 38.2969V45.2402C320.715 46.1126 320.913 46.7637 321.311 47.1934C321.708 47.623 322.329 47.8379 323.176 47.8379C324.296 47.8379 325.113 47.5319 325.627 46.9199C326.148 46.3079 326.408 45.3086 326.408 43.9219V38.2969H328.029V49H326.691L326.457 47.5645H326.369C326.037 48.0918 325.575 48.4954 324.982 48.7754C324.396 49.0553 323.726 49.1953 322.971 49.1953C321.669 49.1953 320.692 48.8861 320.041 48.2676C319.396 47.6491 319.074 46.6595 319.074 45.2988V38.2969H320.715ZM336.457 49.1953C335.76 49.1953 335.122 49.0684 334.543 48.8145C333.97 48.554 333.488 48.1569 333.098 47.623H332.98C333.059 48.248 333.098 48.8405 333.098 49.4004V53.8047H331.477V38.2969H332.795L333.02 39.7617H333.098C333.514 39.1758 333.999 38.7526 334.553 38.4922C335.106 38.2318 335.741 38.1016 336.457 38.1016C337.876 38.1016 338.97 38.5866 339.738 39.5566C340.513 40.5267 340.9 41.8874 340.9 43.6387C340.9 45.3965 340.507 46.7637 339.719 47.7402C338.938 48.7103 337.85 49.1953 336.457 49.1953ZM336.223 39.4785C335.129 39.4785 334.338 39.7812 333.85 40.3867C333.361 40.9922 333.111 41.9557 333.098 43.2773V43.6387C333.098 45.1426 333.348 46.2201 333.85 46.8711C334.351 47.5156 335.155 47.8379 336.262 47.8379C337.186 47.8379 337.909 47.4635 338.43 46.7148C338.957 45.9661 339.221 44.9342 339.221 43.6191C339.221 42.2845 338.957 41.2624 338.43 40.5527C337.909 39.8366 337.173 39.4785 336.223 39.4785Z" fill="#FF4910"/>
<rect x="265.5" y="22.5" width="85" height="37" rx="2.5" stroke="#FF4910"/>
<path d="M32.5 495.5H339C340.933 495.5 342.5 497.067 342.5 499V553C342.5 554.933 340.933 556.5 339 556.5H36C34.067 556.5 32.5 554.933 32.5 553V495.5Z" stroke="#FFBD21"/>
<path d="M32.5 601.5H339C340.933 601.5 342.5 603.067 342.5 605V659C342.5 660.933 340.933 662.5 339 662.5H36C34.067 662.5 32.5 660.933 32.5 659V601.5Z" stroke="#FFBD21"/>
<rect x="32" y="718" width="311" height="62" rx="8" fill="white"/>
<path d="M128.566 756V741.723H131.594V753.5H137.385V756H128.566ZM151.098 756H142.875V741.723H151.098V744.203H145.902V747.338H150.736V749.818H145.902V753.5H151.098V756ZM162.594 756H159.566V744.242H155.689V741.723H166.471V744.242H162.594V756ZM185.908 756L182.471 744.799H182.383C182.507 747.077 182.568 748.598 182.568 749.359V756H179.863V741.723H183.984L187.363 752.641H187.422L191.006 741.723H195.127V756H192.305V749.242C192.305 748.923 192.308 748.555 192.314 748.139C192.327 747.722 192.373 746.615 192.451 744.818H192.363L188.682 756H185.908ZM209.953 756H201.73V741.723H209.953V744.203H204.758V747.338H209.592V749.818H204.758V753.5H209.953V756ZM224.137 756V741.723H227.164V756H224.137ZM246.424 756H242.576L236.365 745.199H236.277C236.401 747.107 236.463 748.467 236.463 749.281V756H233.758V741.723H237.576L243.777 752.416H243.846C243.748 750.561 243.699 749.249 243.699 748.48V741.723H246.424V756Z" fill="#15085F"/>
<circle cx="249" cy="633" r="6" fill="#FFBD21"/>
<circle cx="222" cy="633" r="6" fill="#FFBD21"/>
<circle cx="195" cy="633" r="6" fill="#FFBD21"/>
<circle cx="168" cy="633" r="6" fill="#FFBD21"/>
<circle cx="141" cy="633" r="6" fill="#FFBD21"/>
<circle cx="114" cy="633" r="6" fill="#FFBD21"/>
<circle cx="87" cy="633" r="6" fill="#FFBD21"/>
<circle cx="60" cy="633" r="6" fill="#FFBD21"/>
<path d="M32 481C32 476.582 35.5817 473 40 473H139C143.418 473 147 476.582 147 481V495H32V481Z" fill="#FFBD21"/>
<path d="M32 587C32 582.582 35.5817 579 40 579H139C143.418 579 147 582.582 147 587V601H32V587Z" fill="#FFBD21"/>
<path d="M49.3926 480.006V486.473C49.3926 487.211 49.2262 487.858 48.8936 488.414C48.5654 488.97 48.0892 489.396 47.4648 489.692C46.8405 489.989 46.1022 490.137 45.25 490.137C43.9648 490.137 42.9668 489.809 42.2559 489.152C41.5449 488.492 41.1895 487.589 41.1895 486.445V480.006H43.3018V486.124C43.3018 486.894 43.4567 487.459 43.7666 487.819C44.0765 488.179 44.5892 488.359 45.3047 488.359C45.9974 488.359 46.4987 488.179 46.8086 487.819C47.123 487.455 47.2803 486.885 47.2803 486.11V480.006H49.3926ZM59.8393 487.225C59.8393 488.127 59.5134 488.838 58.8617 489.357C58.2146 489.877 57.3122 490.137 56.1547 490.137C55.0883 490.137 54.1449 489.936 53.3246 489.535V487.566C53.9991 487.867 54.5688 488.079 55.0336 488.202C55.503 488.325 55.9314 488.387 56.3188 488.387C56.7836 488.387 57.1391 488.298 57.3852 488.12C57.6358 487.942 57.7611 487.678 57.7611 487.327C57.7611 487.131 57.7064 486.958 57.5971 486.808C57.4877 486.653 57.3259 486.505 57.1117 486.363C56.9021 486.222 56.4714 485.996 55.8197 485.687C55.209 485.399 54.751 485.124 54.4457 484.859C54.1404 484.595 53.8965 484.287 53.7143 483.937C53.532 483.586 53.4408 483.175 53.4408 482.706C53.4408 481.822 53.7393 481.127 54.3363 480.621C54.9379 480.115 55.7673 479.862 56.8246 479.862C57.3441 479.862 57.8386 479.924 58.308 480.047C58.782 480.17 59.2764 480.343 59.7914 480.566L59.1078 482.214C58.5746 481.995 58.1326 481.842 57.7816 481.756C57.4353 481.669 57.0935 481.626 56.7563 481.626C56.3552 481.626 56.0476 481.719 55.8334 481.906C55.6192 482.093 55.5121 482.337 55.5121 482.638C55.5121 482.825 55.5554 482.989 55.642 483.13C55.7286 483.267 55.8653 483.401 56.0521 483.533C56.2436 483.661 56.6924 483.893 57.3988 484.23C58.3331 484.677 58.9734 485.126 59.3197 485.577C59.6661 486.024 59.8393 486.573 59.8393 487.225ZM69.5066 490H63.7508V480.006H69.5066V481.742H65.8699V483.937H69.2537V485.673H65.8699V488.25H69.5066V490ZM75.8176 484.442H76.5012C77.1711 484.442 77.6656 484.331 77.9846 484.107C78.3036 483.884 78.4631 483.533 78.4631 483.055C78.4631 482.581 78.299 482.243 77.9709 482.043C77.6473 481.842 77.1437 481.742 76.4602 481.742H75.8176V484.442ZM75.8176 486.165V490H73.6984V480.006H76.6105C77.9686 480.006 78.9735 480.254 79.6252 480.751C80.2769 481.243 80.6027 481.993 80.6027 483C80.6027 483.588 80.4409 484.112 80.1174 484.572C79.7938 485.028 79.3358 485.386 78.7434 485.646C80.2473 487.892 81.2271 489.344 81.6828 490H79.3312L76.9455 486.165H75.8176ZM93.9068 490H91.2135L86.8658 482.439H86.8043C86.8909 483.775 86.9342 484.727 86.9342 485.297V490H85.0406V480.006H87.7135L92.0543 487.491H92.1021C92.0338 486.192 91.9996 485.274 91.9996 484.736V480.006H93.9068V490ZM104.647 490L103.923 487.621H100.279L99.5547 490H97.2715L100.799 479.965H103.39L106.931 490H104.647ZM103.417 485.844C102.747 483.688 102.369 482.469 102.282 482.187C102.2 481.904 102.141 481.681 102.104 481.517C101.954 482.1 101.523 483.542 100.812 485.844H103.417ZM114.527 490L112.121 482.159H112.059C112.146 483.754 112.189 484.818 112.189 485.352V490H110.295V480.006H113.18L115.545 487.648H115.586L118.095 480.006H120.98V490H119.004V485.27C119.004 485.046 119.007 484.789 119.011 484.497C119.02 484.205 119.052 483.431 119.107 482.173H119.045L116.468 490H114.527ZM131.358 490H125.602V480.006H131.358V481.742H127.721V483.937H131.105V485.673H127.721V488.25H131.358V490Z" fill="#15085F"/>
<path d="M43.377 590.709H44.0742C44.7259 590.709 45.2135 590.581 45.5371 590.326C45.8607 590.066 46.0225 589.69 46.0225 589.198C46.0225 588.701 45.8857 588.335 45.6123 588.098C45.3434 587.861 44.9196 587.742 44.3408 587.742H43.377V590.709ZM48.1621 589.123C48.1621 590.199 47.8249 591.021 47.1504 591.591C46.4805 592.16 45.5257 592.445 44.2861 592.445H43.377V596H41.2578V586.006H44.4502C45.6624 586.006 46.583 586.268 47.2119 586.792C47.8454 587.312 48.1621 588.089 48.1621 589.123ZM58.267 596L57.5424 593.621H53.8988L53.1742 596H50.891L54.4184 585.965H57.0092L60.5502 596H58.267ZM57.0365 591.844C56.3666 589.688 55.9883 588.469 55.9018 588.187C55.8197 587.904 55.7605 587.681 55.724 587.517C55.5736 588.1 55.143 589.542 54.432 591.844H57.0365ZM69.8143 593.225C69.8143 594.127 69.4884 594.838 68.8367 595.357C68.1896 595.877 67.2872 596.137 66.1297 596.137C65.0633 596.137 64.1199 595.936 63.2996 595.535V593.566C63.9741 593.867 64.5438 594.079 65.0086 594.202C65.478 594.325 65.9064 594.387 66.2938 594.387C66.7586 594.387 67.1141 594.298 67.3602 594.12C67.6108 593.942 67.7361 593.678 67.7361 593.327C67.7361 593.131 67.6814 592.958 67.5721 592.808C67.4627 592.653 67.3009 592.505 67.0867 592.363C66.8771 592.222 66.4464 591.996 65.7947 591.687C65.1841 591.399 64.726 591.124 64.4207 590.859C64.1154 590.595 63.8716 590.287 63.6893 589.937C63.507 589.586 63.4158 589.175 63.4158 588.706C63.4158 587.822 63.7143 587.127 64.3113 586.621C64.9129 586.115 65.7423 585.862 66.7996 585.862C67.3191 585.862 67.8136 585.924 68.283 586.047C68.757 586.17 69.2514 586.343 69.7664 586.566L69.0828 588.214C68.5496 587.995 68.1076 587.842 67.7566 587.756C67.4103 587.669 67.0685 587.626 66.7313 587.626C66.3302 587.626 66.0226 587.719 65.8084 587.906C65.5942 588.093 65.4871 588.337 65.4871 588.638C65.4871 588.825 65.5304 588.989 65.617 589.13C65.7036 589.267 65.8403 589.401 66.0271 589.533C66.2186 589.661 66.6674 589.893 67.3738 590.23C68.3081 590.677 68.9484 591.126 69.2947 591.577C69.6411 592.024 69.8143 592.573 69.8143 593.225ZM79.6252 593.225C79.6252 594.127 79.2993 594.838 78.6477 595.357C78.0005 595.877 77.0982 596.137 75.9406 596.137C74.8742 596.137 73.9309 595.936 73.1105 595.535V593.566C73.785 593.867 74.3547 594.079 74.8195 594.202C75.2889 594.325 75.7173 594.387 76.1047 594.387C76.5695 594.387 76.925 594.298 77.1711 594.12C77.4217 593.942 77.5471 593.678 77.5471 593.327C77.5471 593.131 77.4924 592.958 77.383 592.808C77.2736 592.653 77.1118 592.505 76.8977 592.363C76.688 592.222 76.2574 591.996 75.6057 591.687C74.995 591.399 74.537 591.124 74.2316 590.859C73.9263 590.595 73.6825 590.287 73.5002 589.937C73.3179 589.586 73.2268 589.175 73.2268 588.706C73.2268 587.822 73.5253 587.127 74.1223 586.621C74.7238 586.115 75.5533 585.862 76.6105 585.862C77.1301 585.862 77.6245 585.924 78.0939 586.047C78.5679 586.17 79.0624 586.343 79.5773 586.566L78.8937 588.214C78.3605 587.995 77.9185 587.842 77.5676 587.756C77.2212 587.669 76.8794 587.626 76.5422 587.626C76.1411 587.626 75.8335 587.719 75.6193 587.906C75.4051 588.093 75.298 588.337 75.298 588.638C75.298 588.825 75.3413 588.989 75.4279 589.13C75.5145 589.267 75.6512 589.401 75.8381 589.533C76.0295 589.661 76.4784 589.893 77.1848 590.23C78.119 590.677 78.7593 591.126 79.1057 591.577C79.452 592.024 79.6252 592.573 79.6252 593.225ZM93.2711 596H90.858L89.5045 590.75C89.4544 590.563 89.3678 590.178 89.2447 589.595C89.1262 589.007 89.0579 588.613 89.0396 588.412C89.0123 588.658 88.9439 589.055 88.8346 589.602C88.7252 590.144 88.6409 590.531 88.5816 590.764L87.235 596H84.8287L82.2789 586.006H84.3639L85.6422 591.461C85.8655 592.468 86.0273 593.341 86.1275 594.079C86.1549 593.819 86.2164 593.418 86.3121 592.876C86.4124 592.329 86.5058 591.905 86.5924 591.604L88.0484 586.006H90.0514L91.5074 591.604C91.5712 591.855 91.651 592.238 91.7467 592.753C91.8424 593.268 91.9153 593.71 91.9654 594.079C92.011 593.724 92.0839 593.282 92.1842 592.753C92.2844 592.22 92.3756 591.789 92.4576 591.461L93.7291 586.006H95.8141L93.2711 596ZM108.243 590.989C108.243 592.644 107.833 593.915 107.013 594.804C106.192 595.692 105.017 596.137 103.485 596.137C101.954 596.137 100.778 595.692 99.958 594.804C99.1377 593.915 98.7275 592.639 98.7275 590.976C98.7275 589.312 99.1377 588.043 99.958 587.168C100.783 586.288 101.963 585.849 103.499 585.849C105.035 585.849 106.208 586.291 107.02 587.175C107.835 588.059 108.243 589.33 108.243 590.989ZM100.949 590.989C100.949 592.106 101.161 592.947 101.585 593.512C102.009 594.077 102.642 594.359 103.485 594.359C105.176 594.359 106.021 593.236 106.021 590.989C106.021 588.738 105.181 587.612 103.499 587.612C102.656 587.612 102.02 587.897 101.592 588.467C101.163 589.032 100.949 589.873 100.949 590.989ZM114.534 590.442H115.217C115.887 590.442 116.382 590.331 116.701 590.107C117.02 589.884 117.179 589.533 117.179 589.055C117.179 588.581 117.015 588.243 116.687 588.043C116.363 587.842 115.86 587.742 115.176 587.742H114.534V590.442ZM114.534 592.165V596H112.414V586.006H115.327C116.685 586.006 117.69 586.254 118.341 586.751C118.993 587.243 119.319 587.993 119.319 589C119.319 589.588 119.157 590.112 118.833 590.572C118.51 591.028 118.052 591.386 117.459 591.646C118.963 593.892 119.943 595.344 120.399 596H118.047L115.662 592.165H114.534ZM132.049 590.907C132.049 592.552 131.579 593.812 130.64 594.688C129.706 595.562 128.355 596 126.587 596H123.757V586.006H126.894C128.526 586.006 129.793 586.437 130.695 587.298C131.597 588.159 132.049 589.362 132.049 590.907ZM129.847 590.962C129.847 588.815 128.9 587.742 127.004 587.742H125.876V594.25H126.785C128.827 594.25 129.847 593.154 129.847 590.962Z" fill="#15085F"/>
<path d="M124.19 299V267.59H130.85V293.5H143.59V299H124.19ZM169.011 272.682C166.504 272.682 164.563 273.627 163.188 275.518C161.813 277.394 161.126 280.015 161.126 283.381C161.126 290.385 163.754 293.887 169.011 293.887C171.216 293.887 173.887 293.335 177.024 292.232V297.818C174.446 298.893 171.567 299.43 168.387 299.43C163.818 299.43 160.324 298.048 157.903 295.283C155.483 292.505 154.272 288.523 154.272 283.338C154.272 280.072 154.867 277.215 156.055 274.766C157.244 272.302 158.949 270.419 161.169 269.115C163.403 267.798 166.017 267.139 169.011 267.139C172.061 267.139 175.126 267.876 178.206 269.352L176.057 274.766C174.883 274.207 173.701 273.72 172.512 273.305C171.324 272.889 170.156 272.682 169.011 272.682ZM215.593 299H208.03L199.802 285.766L196.987 287.785V299H190.327V267.59H196.987V281.963L199.609 278.268L208.116 267.59H215.507L204.55 281.49L215.593 299ZM252.207 282.994C252.207 288.165 250.731 292.125 247.781 294.875C244.845 297.625 240.598 299 235.041 299H226.146V267.59H236.007C241.135 267.59 245.117 268.943 247.953 271.65C250.789 274.357 252.207 278.139 252.207 282.994ZM245.289 283.166C245.289 276.42 242.31 273.047 236.351 273.047H232.806V293.5H235.664C242.08 293.5 245.289 290.055 245.289 283.166Z" fill="white"/>
<path d="M109.002 340H105.564L101.824 333.984L100.545 334.902V340H97.5176V325.723H100.545V332.256L101.736 330.576L105.604 325.723H108.963L103.982 332.041L109.002 340ZM122.021 340H113.799V325.723H122.021V328.203H116.826V331.338H121.66V333.818H116.826V337.5H122.021V340ZM136.232 340H128.01V325.723H136.232V328.203H131.037V331.338H135.871V333.818H131.037V337.5H136.232V340ZM145.248 332.441H146.244C147.175 332.441 147.872 332.259 148.334 331.895C148.796 331.523 149.027 330.986 149.027 330.283C149.027 329.574 148.832 329.049 148.441 328.711C148.057 328.372 147.452 328.203 146.625 328.203H145.248V332.441ZM152.084 330.176C152.084 331.712 151.602 332.887 150.639 333.701C149.682 334.515 148.318 334.922 146.547 334.922H145.248V340H142.221V325.723H146.781C148.513 325.723 149.828 326.097 150.727 326.846C151.632 327.588 152.084 328.698 152.084 330.176ZM157.779 340V325.723H160.807V340H157.779ZM180.066 340H176.219L170.008 329.199H169.92C170.044 331.107 170.105 332.467 170.105 333.281V340H167.4V325.723H171.219L177.42 336.416H177.488C177.391 334.561 177.342 333.249 177.342 332.48V325.723H180.066V340ZM192.09 331.982H197.754V339.385C196.836 339.684 195.97 339.893 195.156 340.01C194.349 340.133 193.522 340.195 192.676 340.195C190.521 340.195 188.874 339.564 187.734 338.301C186.602 337.031 186.035 335.212 186.035 332.842C186.035 330.537 186.693 328.74 188.008 327.451C189.329 326.162 191.159 325.518 193.496 325.518C194.961 325.518 196.374 325.811 197.734 326.396L196.729 328.818C195.687 328.298 194.603 328.037 193.477 328.037C192.168 328.037 191.12 328.477 190.332 329.355C189.544 330.234 189.15 331.416 189.15 332.9C189.15 334.45 189.466 335.635 190.098 336.455C190.736 337.269 191.66 337.676 192.871 337.676C193.503 337.676 194.144 337.611 194.795 337.48V334.502H192.09V331.982ZM216.801 331.602L219.779 325.723H223.041L218.305 334.443V340H215.297V334.541L210.561 325.723H213.842L216.801 331.602ZM240.797 332.842C240.797 335.205 240.211 337.021 239.039 338.291C237.867 339.561 236.188 340.195 234 340.195C231.812 340.195 230.133 339.561 228.961 338.291C227.789 337.021 227.203 335.199 227.203 332.822C227.203 330.446 227.789 328.633 228.961 327.383C230.139 326.126 231.826 325.498 234.02 325.498C236.214 325.498 237.89 326.13 239.049 327.393C240.214 328.656 240.797 330.472 240.797 332.842ZM230.377 332.842C230.377 334.437 230.68 335.638 231.285 336.445C231.891 337.253 232.796 337.656 234 337.656C236.415 337.656 237.623 336.051 237.623 332.842C237.623 329.626 236.422 328.018 234.02 328.018C232.815 328.018 231.907 328.424 231.295 329.238C230.683 330.046 230.377 331.247 230.377 332.842ZM258.377 325.723V334.961C258.377 336.016 258.139 336.94 257.664 337.734C257.195 338.529 256.515 339.137 255.623 339.561C254.731 339.984 253.676 340.195 252.459 340.195C250.623 340.195 249.197 339.727 248.182 338.789C247.166 337.845 246.658 336.556 246.658 334.922V325.723H249.676V334.463C249.676 335.563 249.897 336.37 250.34 336.885C250.783 337.399 251.515 337.656 252.537 337.656C253.527 337.656 254.243 337.399 254.686 336.885C255.135 336.364 255.359 335.55 255.359 334.443V325.723H258.377ZM267.9 332.061H268.877C269.834 332.061 270.54 331.901 270.996 331.582C271.452 331.263 271.68 330.762 271.68 330.078C271.68 329.401 271.445 328.919 270.977 328.633C270.514 328.346 269.795 328.203 268.818 328.203H267.9V332.061ZM267.9 334.521V340H264.873V325.723H269.033C270.973 325.723 272.409 326.077 273.34 326.787C274.271 327.49 274.736 328.561 274.736 330C274.736 330.84 274.505 331.589 274.043 332.246C273.581 332.897 272.926 333.408 272.08 333.779C274.229 336.989 275.628 339.062 276.279 340H272.92L269.512 334.521H267.9ZM85.3828 362.441H86.3789C87.3099 362.441 88.0065 362.259 88.4688 361.895C88.931 361.523 89.1621 360.986 89.1621 360.283C89.1621 359.574 88.9668 359.049 88.5762 358.711C88.1921 358.372 87.5866 358.203 86.7598 358.203H85.3828V362.441ZM92.2188 360.176C92.2188 361.712 91.737 362.887 90.7734 363.701C89.8164 364.515 88.4525 364.922 86.6816 364.922H85.3828V370H82.3555V355.723H86.916C88.6478 355.723 89.9629 356.097 90.8613 356.846C91.7663 357.588 92.2188 358.698 92.2188 360.176ZM106.654 370L105.619 366.602H100.414L99.3789 370H96.1172L101.156 355.664H104.857L109.916 370H106.654ZM104.896 364.062C103.939 360.983 103.399 359.242 103.275 358.838C103.158 358.434 103.074 358.115 103.021 357.881C102.807 358.714 102.191 360.775 101.176 364.062H104.896ZM123.15 366.035C123.15 367.324 122.685 368.34 121.754 369.082C120.829 369.824 119.54 370.195 117.887 370.195C116.363 370.195 115.016 369.909 113.844 369.336V366.523C114.807 366.953 115.621 367.256 116.285 367.432C116.956 367.607 117.568 367.695 118.121 367.695C118.785 367.695 119.293 367.568 119.645 367.314C120.003 367.061 120.182 366.683 120.182 366.182C120.182 365.902 120.104 365.654 119.947 365.439C119.791 365.218 119.56 365.007 119.254 364.805C118.954 364.603 118.339 364.281 117.408 363.838C116.536 363.428 115.882 363.034 115.445 362.656C115.009 362.279 114.661 361.839 114.4 361.338C114.14 360.837 114.01 360.251 114.01 359.58C114.01 358.317 114.436 357.324 115.289 356.602C116.148 355.879 117.333 355.518 118.844 355.518C119.586 355.518 120.292 355.605 120.963 355.781C121.64 355.957 122.346 356.204 123.082 356.523L122.105 358.877C121.344 358.564 120.712 358.346 120.211 358.223C119.716 358.099 119.228 358.037 118.746 358.037C118.173 358.037 117.734 358.171 117.428 358.438C117.122 358.704 116.969 359.053 116.969 359.482C116.969 359.749 117.031 359.984 117.154 360.186C117.278 360.381 117.473 360.573 117.74 360.762C118.014 360.944 118.655 361.276 119.664 361.758C120.999 362.396 121.913 363.037 122.408 363.682C122.903 364.32 123.15 365.104 123.15 366.035ZM137.166 366.035C137.166 367.324 136.701 368.34 135.77 369.082C134.845 369.824 133.556 370.195 131.902 370.195C130.379 370.195 129.031 369.909 127.859 369.336V366.523C128.823 366.953 129.637 367.256 130.301 367.432C130.971 367.607 131.583 367.695 132.137 367.695C132.801 367.695 133.309 367.568 133.66 367.314C134.018 367.061 134.197 366.683 134.197 366.182C134.197 365.902 134.119 365.654 133.963 365.439C133.807 365.218 133.576 365.007 133.27 364.805C132.97 364.603 132.355 364.281 131.424 363.838C130.551 363.428 129.897 363.034 129.461 362.656C129.025 362.279 128.676 361.839 128.416 361.338C128.156 360.837 128.025 360.251 128.025 359.58C128.025 358.317 128.452 357.324 129.305 356.602C130.164 355.879 131.349 355.518 132.859 355.518C133.602 355.518 134.308 355.605 134.979 355.781C135.656 355.957 136.362 356.204 137.098 356.523L136.121 358.877C135.359 358.564 134.728 358.346 134.227 358.223C133.732 358.099 133.243 358.037 132.762 358.037C132.189 358.037 131.749 358.171 131.443 358.438C131.137 358.704 130.984 359.053 130.984 359.482C130.984 359.749 131.046 359.984 131.17 360.186C131.294 360.381 131.489 360.573 131.756 360.762C132.029 360.944 132.671 361.276 133.68 361.758C135.014 362.396 135.929 363.037 136.424 363.682C136.919 364.32 137.166 365.104 137.166 366.035ZM156.66 370H153.213L151.279 362.5C151.208 362.233 151.084 361.683 150.908 360.85C150.739 360.01 150.641 359.447 150.615 359.16C150.576 359.512 150.479 360.078 150.322 360.859C150.166 361.634 150.046 362.188 149.961 362.52L148.037 370H144.6L140.957 355.723H143.936L145.762 363.516C146.081 364.954 146.312 366.201 146.455 367.256C146.494 366.885 146.582 366.312 146.719 365.537C146.862 364.756 146.995 364.15 147.119 363.721L149.199 355.723H152.061L154.141 363.721C154.232 364.079 154.346 364.626 154.482 365.361C154.619 366.097 154.723 366.729 154.795 367.256C154.86 366.748 154.964 366.117 155.107 365.361C155.251 364.6 155.381 363.984 155.498 363.516L157.314 355.723H160.293L156.66 370ZM178.049 362.842C178.049 365.205 177.463 367.021 176.291 368.291C175.119 369.561 173.439 370.195 171.252 370.195C169.064 370.195 167.385 369.561 166.213 368.291C165.041 367.021 164.455 365.199 164.455 362.822C164.455 360.446 165.041 358.633 166.213 357.383C167.391 356.126 169.077 355.498 171.271 355.498C173.465 355.498 175.142 356.13 176.301 357.393C177.466 358.656 178.049 360.472 178.049 362.842ZM167.629 362.842C167.629 364.437 167.932 365.638 168.537 366.445C169.143 367.253 170.048 367.656 171.252 367.656C173.667 367.656 174.875 366.051 174.875 362.842C174.875 359.626 173.674 358.018 171.271 358.018C170.067 358.018 169.159 358.424 168.547 359.238C167.935 360.046 167.629 361.247 167.629 362.842ZM187.035 362.061H188.012C188.969 362.061 189.675 361.901 190.131 361.582C190.587 361.263 190.814 360.762 190.814 360.078C190.814 359.401 190.58 358.919 190.111 358.633C189.649 358.346 188.93 358.203 187.953 358.203H187.035V362.061ZM187.035 364.521V370H184.008V355.723H188.168C190.108 355.723 191.544 356.077 192.475 356.787C193.406 357.49 193.871 358.561 193.871 360C193.871 360.84 193.64 361.589 193.178 362.246C192.715 362.897 192.061 363.408 191.215 363.779C193.363 366.989 194.763 369.062 195.414 370H192.055L188.646 364.521H187.035ZM212.057 362.725C212.057 365.075 211.386 366.875 210.045 368.125C208.71 369.375 206.78 370 204.254 370H200.211V355.723H204.693C207.024 355.723 208.834 356.338 210.123 357.568C211.412 358.799 212.057 360.518 212.057 362.725ZM208.912 362.803C208.912 359.736 207.558 358.203 204.85 358.203H203.238V367.5H204.537C207.454 367.5 208.912 365.934 208.912 362.803ZM226.443 366.035C226.443 367.324 225.978 368.34 225.047 369.082C224.122 369.824 222.833 370.195 221.18 370.195C219.656 370.195 218.309 369.909 217.137 369.336V366.523C218.1 366.953 218.914 367.256 219.578 367.432C220.249 367.607 220.861 367.695 221.414 367.695C222.078 367.695 222.586 367.568 222.938 367.314C223.296 367.061 223.475 366.683 223.475 366.182C223.475 365.902 223.396 365.654 223.24 365.439C223.084 365.218 222.853 365.007 222.547 364.805C222.247 364.603 221.632 364.281 220.701 363.838C219.829 363.428 219.174 363.034 218.738 362.656C218.302 362.279 217.954 361.839 217.693 361.338C217.433 360.837 217.303 360.251 217.303 359.58C217.303 358.317 217.729 357.324 218.582 356.602C219.441 355.879 220.626 355.518 222.137 355.518C222.879 355.518 223.585 355.605 224.256 355.781C224.933 355.957 225.639 356.204 226.375 356.523L225.398 358.877C224.637 358.564 224.005 358.346 223.504 358.223C223.009 358.099 222.521 358.037 222.039 358.037C221.466 358.037 221.027 358.171 220.721 358.438C220.415 358.704 220.262 359.053 220.262 359.482C220.262 359.749 220.324 359.984 220.447 360.186C220.571 360.381 220.766 360.573 221.033 360.762C221.307 360.944 221.948 361.276 222.957 361.758C224.292 362.396 225.206 363.037 225.701 363.682C226.196 364.32 226.443 365.104 226.443 366.035ZM248.654 366.035C248.654 367.324 248.189 368.34 247.258 369.082C246.333 369.824 245.044 370.195 243.391 370.195C241.867 370.195 240.52 369.909 239.348 369.336V366.523C240.311 366.953 241.125 367.256 241.789 367.432C242.46 367.607 243.072 367.695 243.625 367.695C244.289 367.695 244.797 367.568 245.148 367.314C245.507 367.061 245.686 366.683 245.686 366.182C245.686 365.902 245.607 365.654 245.451 365.439C245.295 365.218 245.064 365.007 244.758 364.805C244.458 364.603 243.843 364.281 242.912 363.838C242.04 363.428 241.385 363.034 240.949 362.656C240.513 362.279 240.165 361.839 239.904 361.338C239.644 360.837 239.514 360.251 239.514 359.58C239.514 358.317 239.94 357.324 240.793 356.602C241.652 355.879 242.837 355.518 244.348 355.518C245.09 355.518 245.796 355.605 246.467 355.781C247.144 355.957 247.85 356.204 248.586 356.523L247.609 358.877C246.848 358.564 246.216 358.346 245.715 358.223C245.22 358.099 244.732 358.037 244.25 358.037C243.677 358.037 243.238 358.171 242.932 358.438C242.626 358.704 242.473 359.053 242.473 359.482C242.473 359.749 242.535 359.984 242.658 360.186C242.782 360.381 242.977 360.573 243.244 360.762C243.518 360.944 244.159 361.276 245.168 361.758C246.503 362.396 247.417 363.037 247.912 363.682C248.407 364.32 248.654 365.104 248.654 366.035ZM262.982 370L261.947 366.602H256.742L255.707 370H252.445L257.484 355.664H261.186L266.244 370H262.982ZM261.225 364.062C260.268 360.983 259.727 359.242 259.604 358.838C259.486 358.434 259.402 358.115 259.35 357.881C259.135 358.714 258.52 360.775 257.504 364.062H261.225ZM274.029 370H271.051V355.723H279.234V358.203H274.029V361.885H278.873V364.355H274.029V370ZM293.25 370H285.027V355.723H293.25V358.203H288.055V361.338H292.889V363.818H288.055V367.5H293.25V370Z" fill="#FFBD21"/>
<circle r="38" transform="matrix(-1 0 0 1 187 201)" fill="white"/>
<mask id="mask0" mask-type="alpha" maskUnits="userSpaceOnUse" x="149" y="163" width="76" height="76">
<circle cx="187" cy="201" r="38" fill="white"/>
</mask>
<g mask="url(#mask0)">
<mask id="mask1" mask-type="alpha" maskUnits="userSpaceOnUse" x="169" y="183" width="36" height="70">
<path fill-rule="evenodd" clip-rule="evenodd" d="M193.493 217.197C199.881 214.625 204.39 208.369 204.39 201.06C204.39 191.456 196.604 183.671 187 183.671C177.396 183.671 169.61 191.456 169.61 201.06C169.61 208.369 174.119 214.625 180.507 217.197L171.081 246.934C170.264 249.513 172.189 252.143 174.894 252.143H199.106C201.811 252.143 203.736 249.513 202.919 246.934L193.493 217.197Z" fill="white"/>
</mask>
<g mask="url(#mask1)">
<rect x="145.619" y="212.048" width="57.6081" height="19.7361" transform="rotate(-45 145.619 212.048)" fill="#FF4910"/>
<rect x="159.574" y="226.003" width="57.6081" height="19.7361" transform="rotate(-45 159.574 226.003)" fill="#FFBD21"/>
<rect x="173.53" y="239.959" width="57.6081" height="19.7361" transform="rotate(-45 173.53 239.959)" fill="#3C18A2"/>
</g>
</g>
<path d="M187 207C183.903 207 178 206.5 171 201C177.5 195.5 183.903 195 187 195L187 201L187 207Z" fill="white"/>
<path d="M187 195C190.097 195 196 195.5 203 201C196.5 206.5 190.097 207 187 207L187 201L187 195Z" fill="white"/>
<circle cx="187" cy="201" r="6" fill="#373737"/>
<path d="M322.611 644.559C322.486 644.56 322.363 644.535 322.248 644.488C322.133 644.44 322.028 644.37 321.94 644.281L301.072 623.413C300.902 623.234 300.808 622.995 300.811 622.748C300.815 622.5 300.914 622.264 301.089 622.089C301.264 621.914 301.5 621.815 301.748 621.811C301.995 621.808 302.234 621.902 302.413 622.072L323.281 642.94C323.414 643.073 323.504 643.242 323.541 643.426C323.577 643.61 323.559 643.801 323.487 643.974C323.415 644.147 323.294 644.295 323.138 644.399C322.982 644.504 322.798 644.559 322.611 644.559Z" fill="#FFBD21"/>
<path d="M312.157 640.765C309.697 640.765 307.325 640.037 305.107 638.601C303.087 637.297 301.269 635.429 299.848 633.206V633.202C301.03 631.508 302.325 630.076 303.716 628.921C303.728 628.91 303.739 628.897 303.746 628.883C303.753 628.868 303.757 628.852 303.758 628.835C303.759 628.819 303.756 628.803 303.75 628.787C303.745 628.772 303.736 628.758 303.724 628.747L302.543 627.567C302.522 627.546 302.494 627.534 302.464 627.532C302.434 627.531 302.405 627.541 302.382 627.56C300.905 628.805 299.534 630.332 298.287 632.12C298.073 632.428 297.954 632.793 297.948 633.168C297.941 633.543 298.046 633.912 298.249 634.227C299.815 636.678 301.83 638.741 304.076 640.194C306.604 641.832 309.325 642.662 312.157 642.662C313.685 642.658 315.203 642.406 316.65 641.917C316.67 641.91 316.687 641.899 316.7 641.884C316.714 641.869 316.723 641.851 316.728 641.831C316.732 641.812 316.732 641.791 316.726 641.772C316.721 641.752 316.71 641.735 316.696 641.72L315.417 640.441C315.387 640.412 315.351 640.392 315.311 640.381C315.271 640.371 315.229 640.371 315.19 640.382C314.199 640.637 313.18 640.766 312.157 640.765Z" fill="#FFBD21"/>
<path d="M326.099 632.145C324.531 629.719 322.495 627.659 320.214 626.185C317.69 624.554 314.904 623.691 312.157 623.691C310.645 623.694 309.144 623.951 307.717 624.452C307.698 624.459 307.681 624.47 307.667 624.485C307.654 624.5 307.645 624.518 307.64 624.538C307.636 624.557 307.636 624.578 307.642 624.597C307.648 624.616 307.658 624.634 307.672 624.648L308.95 625.926C308.98 625.955 309.017 625.976 309.057 625.986C309.097 625.997 309.14 625.996 309.18 625.985C310.15 625.723 311.151 625.589 312.157 625.588C314.569 625.588 316.934 626.325 319.185 627.782C321.243 629.11 323.082 630.976 324.506 633.177C324.507 633.178 324.508 633.18 324.508 633.182C324.508 633.183 324.507 633.185 324.506 633.186C323.473 634.814 322.19 636.269 320.705 637.498C320.692 637.509 320.682 637.522 320.674 637.536C320.667 637.551 320.663 637.567 320.662 637.584C320.661 637.6 320.664 637.616 320.67 637.632C320.675 637.647 320.684 637.661 320.696 637.673L321.876 638.852C321.897 638.873 321.925 638.886 321.954 638.887C321.984 638.889 322.013 638.879 322.036 638.86C323.621 637.525 324.993 635.956 326.105 634.207C326.302 633.899 326.406 633.541 326.405 633.175C326.403 632.81 326.298 632.452 326.099 632.145Z" fill="#FFBD21"/>
<path d="M312.177 627.486C311.751 627.485 311.326 627.533 310.91 627.628C310.889 627.632 310.87 627.642 310.854 627.657C310.838 627.671 310.826 627.69 310.82 627.71C310.814 627.731 310.814 627.753 310.819 627.773C310.825 627.794 310.835 627.813 310.851 627.828L317.526 634.501C317.541 634.517 317.56 634.527 317.58 634.533C317.601 634.538 317.623 634.538 317.643 634.532C317.664 634.525 317.683 634.514 317.697 634.498C317.712 634.482 317.722 634.463 317.726 634.442C317.916 633.608 317.916 632.743 317.725 631.909C317.535 631.076 317.159 630.296 316.626 629.628C316.093 628.959 315.416 628.42 314.646 628.049C313.876 627.678 313.032 627.486 312.177 627.486Z" fill="#FFBD21"/>
<path d="M306.828 631.852C306.813 631.837 306.794 631.826 306.773 631.821C306.753 631.816 306.731 631.816 306.71 631.822C306.69 631.828 306.671 631.84 306.657 631.856C306.642 631.871 306.632 631.891 306.628 631.912C306.413 632.851 306.44 633.829 306.706 634.755C306.973 635.681 307.47 636.525 308.151 637.206C308.833 637.887 309.676 638.385 310.602 638.651C311.528 638.917 312.506 638.944 313.446 638.729C313.467 638.725 313.486 638.715 313.502 638.701C313.518 638.686 313.529 638.668 313.535 638.647C313.541 638.626 313.542 638.605 313.536 638.584C313.531 638.563 313.52 638.544 313.505 638.529L306.828 631.852Z" fill="#FFBD21"/>
</g>
<defs>
<clipPath id="clip0">
<rect width="375" height="812" fill="white"/>
</clipPath>
</defs>
</svg>
