<svg width="411" height="823" viewBox="0 0 411 823" fill="none" xmlns="http://www.w3.org/2000/svg">
<g clip-path="url(#clip0)">
<rect width="411" height="823" fill="#19274A"/>
<g clip-path="url(#clip1)">
<path d="M330.55 722.571C223.809 693.161 50.4094 702.237 -22.948 710.451L-108 847H658V685C593.325 709.778 437.29 751.982 330.55 722.571Z" fill="white" fill-opacity="0.2"/>
<path d="M196.45 714.571C120.645 685.161 -2.50034 694.237 -54.5975 702.451L-115 839H429V677C383.069 701.778 272.256 743.982 196.45 714.571Z" fill="#00B2FF" fill-opacity="0.8"/>
<path d="M212.397 720.716C289.456 692.758 414.639 701.386 467.598 709.195L529 839H-24V685C22.6909 708.554 135.338 748.674 212.397 720.716Z" fill="#00B2FF" fill-opacity="0.8"/>
</g>
<path d="M134.53 443.4H141.388V444.732H136.024V449.034H141.028V450.366H136.024V456H134.53V443.4ZM154.881 456H147.429V443.4H148.923V454.668H154.881V456ZM158.61 449.7C158.61 447.6 159.054 445.992 159.942 444.876C160.83 443.748 162.096 443.184 163.74 443.184C164.628 443.184 165.396 443.34 166.044 443.652C166.692 443.964 167.226 444.408 167.646 444.984C168.078 445.548 168.396 446.232 168.6 447.036C168.804 447.828 168.906 448.716 168.906 449.7C168.906 451.8 168.456 453.414 167.556 454.542C166.668 455.658 165.396 456.216 163.74 456.216C162.864 456.216 162.102 456.06 161.454 455.748C160.818 455.436 160.284 454.998 159.852 454.434C159.432 453.858 159.12 453.174 158.916 452.382C158.712 451.578 158.61 450.684 158.61 449.7ZM160.194 449.7C160.194 450.396 160.26 451.056 160.392 451.68C160.536 452.304 160.752 452.856 161.04 453.336C161.328 453.804 161.694 454.182 162.138 454.47C162.594 454.746 163.128 454.884 163.74 454.884C164.856 454.884 165.732 454.464 166.368 453.624C167.004 452.772 167.322 451.464 167.322 449.7C167.322 449.016 167.25 448.362 167.106 447.738C166.974 447.102 166.758 446.55 166.458 446.082C166.17 445.602 165.798 445.224 165.342 444.948C164.898 444.66 164.364 444.516 163.74 444.516C162.636 444.516 161.766 444.942 161.13 445.794C160.506 446.634 160.194 447.936 160.194 449.7ZM177.151 451.842L177.439 453.93H177.457L177.763 451.806L180.355 443.4H181.075L183.685 451.842L183.991 453.93H184.009L184.333 451.806L186.457 443.4H187.915L184.405 456.198H183.577L181.021 447.756L180.697 445.848H180.607L180.283 447.774L177.727 456.198H176.899L173.299 443.4H174.883L177.151 451.842ZM201.134 443.4H207.992V444.732H202.628V449.034H207.632V450.366H202.628V456H201.134V443.4ZM214.032 443.526C214.488 443.442 215.01 443.376 215.598 443.328C216.198 443.28 216.744 443.256 217.236 443.256C217.788 443.256 218.31 443.316 218.802 443.436C219.306 443.556 219.744 443.754 220.116 444.03C220.5 444.306 220.806 444.666 221.034 445.11C221.262 445.554 221.376 446.094 221.376 446.73C221.376 447.714 221.106 448.512 220.566 449.124C220.026 449.736 219.342 450.144 218.514 450.348L219.378 451.014L222.51 456H220.764L217.29 450.564L215.526 450.294V456H214.032V443.526ZM217.272 444.552C217.116 444.552 216.954 444.552 216.786 444.552C216.618 444.552 216.456 444.558 216.3 444.57C216.144 444.582 215.994 444.594 215.85 444.606C215.718 444.618 215.61 444.636 215.526 444.66V449.304H216.93C217.758 449.304 218.442 449.1 218.982 448.692C219.522 448.284 219.792 447.648 219.792 446.784C219.792 446.136 219.57 445.602 219.126 445.182C218.682 444.762 218.064 444.552 217.272 444.552ZM228.337 443.4H235.195V444.732H229.831V448.854H234.745V450.186H229.831V454.668H235.285V456H228.337V443.4ZM241.588 443.4H248.446V444.732H243.082V448.854H247.996V450.186H243.082V454.668H248.536V456H241.588V443.4ZM262.29 456H254.838V443.4H256.332V454.668H262.29V456ZM268.611 450.996L264.453 443.4H266.199L269.151 448.908L269.457 450.006H269.475L269.799 448.872L272.625 443.4H274.227L270.105 450.978V456H268.611V450.996Z" fill="#00B2FF" fill-opacity="0.8"/>
<path fill-rule="evenodd" clip-rule="evenodd" d="M180 352.73C180 366.388 191.072 377.46 204.73 377.46C218.388 377.46 229.46 366.388 229.46 352.73C229.46 339.072 218.388 328 204.73 328C191.072 328 180 339.072 180 352.73ZM220.326 355.144C220.326 358.095 219.889 361.009 219.014 363.886L218.747 364.798L213.587 362.974L213.831 362.128C214.573 359.444 214.943 356.998 214.943 354.788C214.943 352.608 214.588 350.74 213.876 349.183C213.164 347.64 212.252 346.869 211.14 346.869C210.413 346.869 209.776 347.21 209.227 347.892C208.678 348.589 208.211 349.487 207.825 350.584C207.455 351.681 207.084 352.89 206.713 354.21C206.343 355.544 205.913 356.879 205.423 358.214C204.934 359.548 204.37 360.764 203.733 361.862C203.095 362.959 202.242 363.849 201.175 364.531C200.122 365.228 198.906 365.576 197.527 365.576C196.637 365.576 195.755 365.42 194.88 365.109C194.02 364.813 193.167 364.301 192.322 363.574C191.476 362.862 190.735 361.973 190.097 360.905C189.474 359.852 188.963 358.503 188.562 356.857C188.177 355.225 187.984 353.394 187.984 351.363C187.984 349.331 188.17 347.5 188.54 345.868C188.926 344.237 189.474 342.51 190.186 340.686L190.498 339.863L195.881 341.753L195.547 342.621C194.212 346.373 193.545 349.464 193.545 351.896C193.545 354.18 193.894 356.026 194.591 357.435C195.287 358.859 196.207 359.57 197.349 359.57C197.986 359.57 198.557 359.355 199.061 358.925C199.566 358.495 199.988 357.917 200.329 357.19C200.685 356.464 201.012 355.626 201.308 354.677C201.605 353.743 201.894 352.756 202.176 351.718C202.457 350.68 202.761 349.642 203.088 348.604C203.414 347.566 203.807 346.573 204.267 345.624C204.726 344.689 205.245 343.859 205.824 343.132C206.402 342.406 207.121 341.827 207.981 341.397C208.856 340.967 209.827 340.752 210.895 340.752C213.564 340.752 215.804 342.057 217.613 344.667C218.489 345.938 219.152 347.412 219.604 349.089C220.086 350.877 220.326 352.895 220.326 355.144Z" fill="white"/>
<path d="M172.842 396.493C175.11 396.493 177.348 396.829 179.559 397.501L180.259 397.707L178.858 401.671L178.208 401.483C176.146 400.914 174.266 400.629 172.569 400.629C170.894 400.629 169.458 400.902 168.262 401.449C167.077 401.996 166.485 402.697 166.485 403.551C166.485 404.11 166.747 404.599 167.271 405.021C167.806 405.443 168.496 405.801 169.339 406.098C170.182 406.382 171.111 406.667 172.125 406.952C173.15 407.237 174.175 407.567 175.201 407.943C176.226 408.319 177.16 408.752 178.003 409.242C178.847 409.732 179.53 410.387 180.054 411.208C180.59 412.016 180.857 412.951 180.857 414.01C180.857 414.694 180.738 415.372 180.499 416.044C180.271 416.705 179.878 417.36 179.319 418.009C178.772 418.659 178.089 419.228 177.269 419.718C176.46 420.197 175.423 420.59 174.158 420.897C172.905 421.194 171.498 421.342 169.937 421.342C168.376 421.342 166.969 421.199 165.716 420.915C164.463 420.618 163.135 420.197 161.734 419.65L161.102 419.411L162.554 415.275L163.221 415.531C166.103 416.557 168.479 417.069 170.347 417.069C172.102 417.069 173.52 416.802 174.603 416.266C175.696 415.731 176.243 415.024 176.243 414.147C176.243 413.657 176.078 413.218 175.748 412.831C175.417 412.444 174.973 412.119 174.415 411.857C173.856 411.583 173.213 411.333 172.483 411.105C171.766 410.877 171.008 410.655 170.21 410.438C169.413 410.222 168.615 409.988 167.818 409.738C167.02 409.487 166.257 409.185 165.528 408.832C164.81 408.479 164.172 408.08 163.614 407.636C163.056 407.191 162.611 406.639 162.281 405.978C161.95 405.306 161.785 404.56 161.785 403.739C161.785 401.688 162.788 399.968 164.793 398.578C166.81 397.188 169.493 396.493 172.842 396.493ZM204.28 396.715H208.587V421H204.28V410.456H191.292V421H186.985V396.715H191.292V406.491H204.28V396.715ZM226.66 421.342C220.212 421.342 216.714 419.086 216.167 414.574C216.11 414.084 216.082 413.463 216.082 412.711V412.489V396.715H220.388V412.113C220.388 412.968 220.468 413.686 220.628 414.267C220.798 414.836 221.135 415.36 221.636 415.839C222.741 416.898 224.416 417.428 226.66 417.428C228.267 417.428 229.6 417.143 230.659 416.574C231.719 416.004 232.397 415.201 232.693 414.164C232.841 413.663 232.915 412.979 232.915 412.113V396.715H237.188C237.188 400.27 237.188 403.181 237.188 405.448C237.199 407.704 237.205 409.151 237.205 409.789C237.205 410.416 237.205 410.923 237.205 411.31C237.216 411.697 237.222 412.016 237.222 412.267C237.222 412.803 237.205 413.287 237.171 413.72C237.148 414.141 237.057 414.682 236.897 415.343C236.749 416.004 236.538 416.591 236.265 417.104C236.003 417.605 235.604 418.135 235.068 418.693C234.544 419.251 233.918 419.713 233.189 420.077C232.471 420.442 231.554 420.744 230.437 420.983C229.321 421.222 228.062 421.342 226.66 421.342ZM245.246 396.715H249.553V421H245.246V396.715Z" fill="white"/>
<g filter="url(#filter0_d)">
<path d="M32 0H74V58C74 59.1046 73.1046 60 72 60H34C32.8954 60 32 59.1046 32 58V0Z" fill="#EF4343"/>
<path d="M64.9917 46.457C65.6639 44.2467 66 42.008 66 39.7407C66 38.0127 65.815 36.4621 65.4451 35.0888C65.098 33.8002 64.5879 32.6677 63.915 31.6914C62.5251 29.6862 60.8047 28.6836 58.7539 28.6836C57.9336 28.6836 57.1873 28.8488 56.5151 29.1792C55.8543 29.5096 55.3018 29.9539 54.8574 30.5122C54.4131 31.0705 54.0143 31.7085 53.6611 32.4263C53.3079 33.1554 53.006 33.9188 52.7554 34.7163C52.5047 35.5138 52.2712 36.3114 52.0547 37.1089C51.8382 37.9064 51.616 38.6641 51.3882 39.3818C51.1603 40.111 50.9097 40.7547 50.6362 41.313C50.3742 41.8713 50.0495 42.3156 49.6621 42.646C49.2747 42.9764 48.8361 43.1416 48.3462 43.1416C47.4689 43.1416 46.7625 42.5947 46.2271 41.501C45.6916 40.4186 45.4238 39.0002 45.4238 37.2456C45.4238 35.3771 45.9365 33.0016 46.9619 30.1191L47.2183 29.4526L43.0825 28L42.8433 28.6323C42.2964 30.0337 41.8748 31.361 41.5786 32.6143C41.2938 33.8675 41.1514 35.2746 41.1514 36.8354C41.1514 38.3963 41.2995 39.8034 41.5957 41.0566C41.9033 42.3213 42.2964 43.3581 42.7749 44.167C43.2648 44.9873 43.8345 45.6709 44.4839 46.2178C45.1333 46.776 45.7884 47.1691 46.4492 47.397C47.1214 47.6362 47.7993 47.7559 48.4829 47.7559C49.5425 47.7559 50.4767 47.4881 51.2856 46.9526C52.106 46.4285 52.7611 45.745 53.251 44.9019C53.7409 44.0588 54.1738 43.1245 54.5498 42.0991C54.9258 41.0737 55.2562 40.0483 55.541 39.0229C55.8258 38.009 56.1107 37.0804 56.3955 36.2373C56.6917 35.3942 57.0506 34.7049 57.4722 34.1694C57.8937 33.6453 58.3836 33.3833 58.9419 33.3833C59.7964 33.3833 60.4971 33.9757 61.0439 35.1606C61.5908 36.3569 61.8643 37.7925 61.8643 39.4673C61.8643 41.1649 61.5794 43.0448 61.0098 45.1069L60.8218 45.7563L64.7866 47.1577L64.9917 46.457Z" fill="#082756"/>
</g>
</g>
<defs>
<filter id="filter0_d" x="16" y="-16" width="74" height="92" filterUnits="userSpaceOnUse" color-interpolation-filters="sRGB">
<feFlood flood-opacity="0" result="BackgroundImageFix"/>
<feColorMatrix in="SourceAlpha" type="matrix" values="0 0 0 0 0 0 0 0 0 0 0 0 0 0 0 0 0 0 127 0"/>
<feOffset/>
<feGaussianBlur stdDeviation="8"/>
<feColorMatrix type="matrix" values="0 0 0 0 0 0 0 0 0 0 0 0 0 0 0 0 0 0 0.25 0"/>
<feBlend mode="normal" in2="BackgroundImageFix" result="effect1_dropShadow"/>
<feBlend mode="normal" in="SourceGraphic" in2="effect1_dropShadow" result="shape"/>
</filter>
<clipPath id="clip0">
<rect width="411" height="823" fill="white"/>
</clipPath>
<clipPath id="clip1">
<rect width="411" height="146" fill="white" transform="translate(0 677)"/>
</clipPath>
</defs>
</svg>
