<svg width="375" height="812" viewBox="0 0 375 812" fill="none" xmlns="http://www.w3.org/2000/svg">
<g clip-path="url(#clip0)">
<rect width="375" height="812" fill="#222222"/>
<g filter="url(#filter0_ddd)">
<rect x="94" y="748" width="186" height="36" rx="18" fill="black" fill-opacity="0.4"/>
</g>
<path d="M152.477 768.348C152.399 769.218 152.057 769.897 151.451 770.385C150.85 770.868 150.054 771.109 149.065 771.109C147.99 771.109 147.138 770.768 146.509 770.084C145.88 769.4 145.565 768.45 145.565 767.233V766.769C145.565 765.998 145.709 765.324 145.996 764.745C146.283 764.162 146.696 763.713 147.233 763.398C147.771 763.084 148.396 762.927 149.106 762.927C150.082 762.927 150.866 763.175 151.458 763.672C152.05 764.169 152.392 764.859 152.483 765.743H150.822C150.768 765.233 150.597 764.859 150.31 764.622C150.027 764.381 149.626 764.26 149.106 764.26C147.853 764.26 147.227 765.103 147.227 766.789V767.281C147.227 768.124 147.379 768.753 147.685 769.168C147.99 769.578 148.45 769.783 149.065 769.783C149.612 769.783 150.027 769.672 150.31 769.448C150.592 769.225 150.763 768.858 150.822 768.348H152.477ZM161.361 771H159.7V767.753H156.118V771H154.457V763.036H156.118V766.42H159.7V763.036H161.361V771ZM168.599 769.298H165.304L164.654 771H162.979L166.199 763.036H167.724L170.93 771H169.248L168.599 769.298ZM165.789 768.033H168.113L166.951 765.012L165.789 768.033ZM179.452 771H177.798L174.216 765.565V771H172.555V763.036H174.216L177.798 768.478V763.036H179.452V771ZM188.508 769.995L188.351 770.159C187.667 770.793 186.644 771.109 185.281 771.109C184.151 771.109 183.253 770.765 182.588 770.077C181.923 769.389 181.59 768.441 181.59 767.233V766.789C181.59 765.581 181.907 764.636 182.54 763.952C183.174 763.269 184.046 762.927 185.158 762.927C186.138 762.927 186.913 763.15 187.482 763.597C188.052 764.039 188.394 764.697 188.508 765.572H186.888C186.806 765.117 186.626 764.784 186.348 764.574C186.074 764.365 185.691 764.26 185.199 764.26C183.905 764.26 183.258 765.114 183.258 766.823V767.261C183.258 768.095 183.44 768.724 183.805 769.147C184.169 769.571 184.689 769.783 185.363 769.783C186.038 769.783 186.535 769.653 186.854 769.394V768.026H185.151V766.816H188.508V769.995ZM195.8 767.555H192.368V769.674H196.388V771H190.707V763.036H196.367V764.376H192.368V766.222H195.8V767.555ZM204.136 769.674H207.93V771H202.475V763.036H204.136V769.674ZM214.62 769.298H211.325L210.676 771H209.001L212.221 763.036H213.745L216.951 771H215.27L214.62 769.298ZM211.811 768.033H214.135L212.973 765.012L211.811 768.033ZM225.474 771H223.819L220.237 765.565V771H218.576V763.036H220.237L223.819 768.478V763.036H225.474V771ZM234.529 769.995L234.372 770.159C233.688 770.793 232.665 771.109 231.303 771.109C230.173 771.109 229.275 770.765 228.609 770.077C227.944 769.389 227.611 768.441 227.611 767.233V766.789C227.611 765.581 227.928 764.636 228.562 763.952C229.195 763.269 230.068 762.927 231.18 762.927C232.16 762.927 232.934 763.15 233.504 763.597C234.074 764.039 234.415 764.697 234.529 765.572H232.909C232.827 765.117 232.647 764.784 232.369 764.574C232.096 764.365 231.713 764.26 231.221 764.26C229.926 764.26 229.279 765.114 229.279 766.823V767.261C229.279 768.095 229.462 768.724 229.826 769.147C230.191 769.571 230.71 769.783 231.385 769.783C232.059 769.783 232.556 769.653 232.875 769.394V768.026H231.173V766.816H234.529V769.995ZM243.127 763.036V768.279C243.127 769.145 242.833 769.833 242.245 770.344C241.662 770.854 240.871 771.109 239.873 771.109C238.875 771.109 238.084 770.859 237.501 770.357C236.918 769.852 236.626 769.159 236.626 768.279V763.036H238.273V768.286C238.273 768.81 238.417 769.191 238.704 769.428C238.991 769.665 239.381 769.783 239.873 769.783C240.917 769.783 241.448 769.3 241.466 768.334V763.036H243.127ZM250.255 769.298H246.96L246.311 771H244.636L247.855 763.036H249.38L252.586 771H250.904L250.255 769.298ZM247.445 768.033H249.77L248.607 765.012L247.445 768.033ZM260.801 769.995L260.644 770.159C259.96 770.793 258.937 771.109 257.574 771.109C256.444 771.109 255.546 770.765 254.881 770.077C254.215 769.389 253.883 768.441 253.883 767.233V766.789C253.883 765.581 254.2 764.636 254.833 763.952C255.466 763.269 256.339 762.927 257.451 762.927C258.431 762.927 259.206 763.15 259.775 763.597C260.345 764.039 260.687 764.697 260.801 765.572H259.181C259.099 765.117 258.919 764.784 258.641 764.574C258.367 764.365 257.984 764.26 257.492 764.26C256.198 764.26 255.551 765.114 255.551 766.823V767.261C255.551 768.095 255.733 768.724 256.098 769.147C256.462 769.571 256.982 769.783 257.656 769.783C258.331 769.783 258.827 769.653 259.146 769.394V768.026H257.444V766.816H260.801V769.995ZM268.093 767.555H264.661V769.674H268.681V771H263V763.036H268.66V764.376H264.661V766.222H268.093V767.555Z" fill="white"/>
<rect x="108" y="756" width="28" height="20" rx="2" fill="white"/>
<mask id="mask0" mask-type="alpha" maskUnits="userSpaceOnUse" x="108" y="756" width="28" height="20">
<rect x="108" y="756" width="28" height="20" rx="2" fill="white"/>
</mask>
<g mask="url(#mask0)">
<rect x="108" y="756" width="28" height="20" fill="#0A17A7"/>
<path fill-rule="evenodd" clip-rule="evenodd" d="M106.718 754.083L118.667 762.143V754.667H125.333V762.143L137.282 754.083L138.774 756.294L129.326 762.667H136V769.333H129.326L138.774 775.706L137.282 777.916L125.333 769.857V777.333H118.667V769.857L106.718 777.916L105.226 775.706L114.674 769.333H108V762.667H114.674L105.226 756.294L106.718 754.083Z" fill="white"/>
<path d="M126.668 762.332L139.333 754" stroke="#DB1F35" stroke-width="0.666667" stroke-linecap="round"/>
<path d="M128.013 769.698L139.367 777.35" stroke="#DB1F35" stroke-width="0.666667" stroke-linecap="round"/>
<path d="M116.006 762.311L104.163 754.329" stroke="#DB1F35" stroke-width="0.666667" stroke-linecap="round"/>
<path d="M117.29 769.605L104.163 778.311" stroke="#DB1F35" stroke-width="0.666667" stroke-linecap="round"/>
<path fill-rule="evenodd" clip-rule="evenodd" d="M108 768H120V776H124V768H136V764H124V756H120V764H108V768Z" fill="#E6273E"/>
</g>
<path fill-rule="evenodd" clip-rule="evenodd" d="M322.709 49.9208C322.802 50.023 322.876 50.1444 322.927 50.278C322.977 50.4116 323.003 50.5549 323.003 50.6996C323.003 50.8442 322.977 50.9875 322.927 51.1211C322.876 51.2548 322.802 51.3761 322.709 51.4783L317.416 57.2991L322.709 63.12C322.897 63.3265 323.002 63.6066 323.002 63.8987C323.002 64.1908 322.897 64.4709 322.709 64.6775C322.521 64.884 322.267 65 322.001 65C321.736 65 321.481 64.884 321.293 64.6775L315.294 58.0779C315.201 57.9757 315.127 57.8543 315.076 57.7207C315.026 57.5871 315 57.4438 315 57.2991C315 57.1545 315.026 57.0112 315.076 56.8776C315.127 56.7439 315.201 56.6226 315.294 56.5204L321.293 49.9208C321.386 49.8184 321.497 49.7371 321.618 49.6816C321.74 49.6262 321.87 49.5977 322.001 49.5977C322.133 49.5977 322.263 49.6262 322.385 49.6816C322.506 49.7371 322.616 49.8184 322.709 49.9208Z" fill="white"/>
<path fill-rule="evenodd" clip-rule="evenodd" d="M338 43C338.265 43 338.52 43.1159 338.707 43.3222C338.895 43.5284 339 43.8082 339 44.0999V52.8994C339 54.358 338.473 55.7568 337.536 56.7882C336.598 57.8196 335.327 58.399 334.001 58.399H317.002C316.737 58.399 316.482 58.2831 316.295 58.0769C316.107 57.8706 316.002 57.5908 316.002 57.2991C316.002 57.0074 316.107 56.7276 316.295 56.5213C316.482 56.3151 316.737 56.1992 317.002 56.1992H334.001C334.796 56.1992 335.559 55.8515 336.122 55.2327C336.684 54.6138 337 53.7745 337 52.8994V44.0999C337 43.8082 337.106 43.5284 337.293 43.3222C337.481 43.1159 337.735 43 338 43Z" fill="white"/>
<rect x="35" y="176" width="304" height="364" rx="8" fill="black" fill-opacity="0.4"/>
<path d="M58 414H314C315.657 414 317 415.343 317 417V463C317 464.657 315.657 466 314 466H61C59.3431 466 58 464.657 58 463V414Z" stroke="#1565C0" stroke-width="2"/>
<path d="M57 398C57 395.239 59.2386 393 62 393H176C178.761 393 181 395.239 181 398V413H57V398Z" fill="#1565C0"/>
<path d="M77.7612 406.038V410H75.9082V399.336H79.9878C81.1792 399.336 82.124 399.646 82.8223 400.266C83.5254 400.886 83.877 401.707 83.877 402.727C83.877 403.772 83.5327 404.585 82.8442 405.166C82.1606 405.747 81.2012 406.038 79.9658 406.038H77.7612ZM77.7612 404.551H79.9878C80.647 404.551 81.1499 404.397 81.4966 404.089C81.8433 403.777 82.0166 403.328 82.0166 402.742C82.0166 402.166 81.8408 401.707 81.4893 401.365C81.1377 401.018 80.6543 400.84 80.0391 400.83H77.7612V404.551ZM90.9185 407.517H86.7876L85.9233 410H83.9971L88.0254 399.336H89.688L93.7236 410H91.79L90.9185 407.517ZM87.3076 406.023H90.3984L88.853 401.599L87.3076 406.023ZM101.263 407.253C101.263 406.785 101.097 406.423 100.765 406.169C100.438 405.916 99.8447 405.659 98.9854 405.4C98.126 405.142 97.4424 404.854 96.9346 404.536C95.9629 403.926 95.4771 403.13 95.4771 402.148C95.4771 401.289 95.8262 400.581 96.5244 400.024C97.2275 399.468 98.1382 399.189 99.2563 399.189C99.9985 399.189 100.66 399.326 101.241 399.6C101.822 399.873 102.279 400.264 102.611 400.771C102.943 401.274 103.109 401.833 103.109 402.449H101.263C101.263 401.892 101.087 401.458 100.736 401.145C100.389 400.828 99.8911 400.669 99.2417 400.669C98.6362 400.669 98.165 400.798 97.8281 401.057C97.4961 401.316 97.3301 401.677 97.3301 402.141C97.3301 402.532 97.5107 402.859 97.8721 403.123C98.2334 403.381 98.8291 403.635 99.6592 403.884C100.489 404.128 101.156 404.409 101.659 404.727C102.162 405.039 102.53 405.4 102.765 405.811C102.999 406.216 103.116 406.692 103.116 407.239C103.116 408.127 102.774 408.835 102.091 409.363C101.412 409.885 100.489 410.146 99.3223 410.146C98.5508 410.146 97.8403 410.005 97.1909 409.722C96.5464 409.434 96.0435 409.038 95.6821 408.535C95.3257 408.032 95.1475 407.446 95.1475 406.777H97.0005C97.0005 407.383 97.2007 407.852 97.6011 408.184C98.0015 408.516 98.5752 408.682 99.3223 408.682C99.9668 408.682 100.45 408.552 100.772 408.293C101.1 408.03 101.263 407.683 101.263 407.253ZM111.066 407.253C111.066 406.785 110.9 406.423 110.568 406.169C110.241 405.916 109.647 405.659 108.788 405.4C107.929 405.142 107.245 404.854 106.737 404.536C105.766 403.926 105.28 403.13 105.28 402.148C105.28 401.289 105.629 400.581 106.327 400.024C107.03 399.468 107.941 399.189 109.059 399.189C109.801 399.189 110.463 399.326 111.044 399.6C111.625 399.873 112.082 400.264 112.414 400.771C112.746 401.274 112.912 401.833 112.912 402.449H111.066C111.066 401.892 110.89 401.458 110.539 401.145C110.192 400.828 109.694 400.669 109.044 400.669C108.439 400.669 107.968 400.798 107.631 401.057C107.299 401.316 107.133 401.677 107.133 402.141C107.133 402.532 107.313 402.859 107.675 403.123C108.036 403.381 108.632 403.635 109.462 403.884C110.292 404.128 110.958 404.409 111.461 404.727C111.964 405.039 112.333 405.4 112.567 405.811C112.802 406.216 112.919 406.692 112.919 407.239C112.919 408.127 112.577 408.835 111.894 409.363C111.215 409.885 110.292 410.146 109.125 410.146C108.354 410.146 107.643 410.005 106.994 409.722C106.349 409.434 105.846 409.038 105.485 408.535C105.128 408.032 104.95 407.446 104.95 406.777H106.803C106.803 407.383 107.003 407.852 107.404 408.184C107.804 408.516 108.378 408.682 109.125 408.682C109.77 408.682 110.253 408.552 110.575 408.293C110.902 408.03 111.066 407.683 111.066 407.253ZM123.659 407.363L125.3 399.336H127.138L124.677 410H122.905L120.876 402.214L118.803 410H117.023L114.562 399.336H116.401L118.056 407.349L120.092 399.336H121.645L123.659 407.363ZM137.754 404.946C137.754 405.991 137.573 406.909 137.212 407.7C136.851 408.486 136.333 409.092 135.659 409.517C134.99 409.937 134.219 410.146 133.345 410.146C132.48 410.146 131.709 409.937 131.03 409.517C130.356 409.092 129.834 408.489 129.463 407.708C129.097 406.926 128.911 406.025 128.906 405.005V404.404C128.906 403.364 129.089 402.446 129.456 401.65C129.827 400.854 130.347 400.247 131.016 399.827C131.689 399.402 132.461 399.189 133.33 399.189C134.199 399.189 134.968 399.399 135.637 399.819C136.311 400.234 136.831 400.835 137.197 401.621C137.563 402.402 137.749 403.313 137.754 404.353V404.946ZM135.901 404.39C135.901 403.208 135.676 402.302 135.227 401.672C134.783 401.042 134.15 400.728 133.33 400.728C132.529 400.728 131.902 401.042 131.448 401.672C130.999 402.297 130.769 403.184 130.759 404.331V404.946C130.759 406.118 130.986 407.024 131.44 407.664C131.899 408.303 132.534 408.623 133.345 408.623C134.165 408.623 134.795 408.311 135.234 407.686C135.679 407.061 135.901 406.147 135.901 404.946V404.39ZM144.268 405.891H142.203V410H140.35V399.336H144.1C145.33 399.336 146.28 399.612 146.949 400.164C147.618 400.715 147.952 401.514 147.952 402.559C147.952 403.271 147.779 403.87 147.432 404.353C147.09 404.832 146.612 405.2 145.997 405.459L148.392 409.905V410H146.407L144.268 405.891ZM142.203 404.404H144.107C144.732 404.404 145.22 404.248 145.572 403.936C145.923 403.618 146.099 403.186 146.099 402.639C146.099 402.068 145.936 401.626 145.608 401.313C145.286 401.001 144.803 400.84 144.158 400.83H142.203V404.404ZM150.46 410V399.336H153.609C154.552 399.336 155.387 399.546 156.114 399.966C156.847 400.386 157.413 400.981 157.813 401.753C158.214 402.524 158.414 403.408 158.414 404.404V404.939C158.414 405.95 158.211 406.838 157.806 407.605C157.406 408.372 156.832 408.962 156.085 409.377C155.343 409.792 154.491 410 153.529 410H150.46ZM152.313 400.83V408.521H153.521C154.493 408.521 155.238 408.218 155.755 407.612C156.278 407.002 156.544 406.128 156.554 404.99V404.397C156.554 403.24 156.302 402.356 155.799 401.746C155.296 401.135 154.566 400.83 153.609 400.83H152.313Z" fill="white"/>
<path d="M58 317H314C315.657 317 317 318.343 317 320V366C317 367.657 315.657 369 314 369H61C59.3431 369 58 367.657 58 366V317Z" stroke="#1565C0" stroke-width="2"/>
<path d="M57 301C57 298.239 59.2386 296 62 296H176C178.761 296 181 298.239 181 301V316H57V301Z" fill="#1565C0"/>
<path d="M100.771 308.239H96.3911V311.521H101.511V313H94.5381V302.336H101.459V303.83H96.3911V306.774H100.771V308.239ZM106.172 302.336L109.248 310.51L112.317 302.336H114.712V313H112.866V309.484L113.049 304.782L109.9 313H108.574L105.432 304.79L105.615 309.484V313H103.77V302.336H106.172ZM123.76 310.517H119.629L118.765 313H116.839L120.867 302.336H122.53L126.565 313H124.632L123.76 310.517ZM120.149 309.023H123.24L121.695 304.599L120.149 309.023ZM130.487 313H128.641V302.336H130.487V313ZM135.368 311.521H140.209V313H133.515V302.336H135.368V311.521Z" fill="white"/>
<path d="M82.793 344.125C82.793 345.332 82.5171 346.303 81.9653 347.041C81.4136 347.778 80.6665 348.146 79.7241 348.146C78.7622 348.146 78.0054 347.841 77.4536 347.231V351.047H76.0986V340.075H77.3364L77.4023 340.954C77.9541 340.271 78.7207 339.929 79.7021 339.929C80.6543 339.929 81.4062 340.288 81.958 341.005C82.5146 341.723 82.793 342.722 82.793 344.001V344.125ZM81.438 343.972C81.438 343.078 81.2476 342.373 80.8667 341.855C80.4858 341.337 79.9634 341.079 79.2993 341.079C78.479 341.079 77.8638 341.442 77.4536 342.17V345.957C77.8589 346.679 78.479 347.041 79.314 347.041C79.9634 347.041 80.4785 346.784 80.8594 346.271C81.2451 345.754 81.438 344.987 81.438 343.972ZM86.7437 348H85.3887V336.75H86.7437V348ZM94.5615 348C94.4834 347.844 94.4199 347.565 94.3711 347.165C93.7412 347.819 92.9893 348.146 92.1152 348.146C91.334 348.146 90.6919 347.927 90.189 347.487C89.6909 347.043 89.4419 346.481 89.4419 345.803C89.4419 344.978 89.7544 344.338 90.3794 343.884C91.0093 343.425 91.8931 343.195 93.0308 343.195H94.3491V342.573C94.3491 342.099 94.2075 341.723 93.9243 341.445C93.6411 341.162 93.2236 341.02 92.6719 341.02C92.1885 341.02 91.7832 341.142 91.4561 341.386C91.1289 341.63 90.9653 341.926 90.9653 342.272H89.603C89.603 341.877 89.7422 341.496 90.0205 341.13C90.3037 340.759 90.6846 340.466 91.1631 340.251C91.6465 340.036 92.1763 339.929 92.7524 339.929C93.6655 339.929 94.3809 340.158 94.8984 340.617C95.416 341.071 95.6846 341.699 95.7041 342.5V346.147C95.7041 346.875 95.7969 347.453 95.9824 347.883V348H94.5615ZM92.313 346.967C92.7378 346.967 93.1406 346.857 93.5215 346.638C93.9023 346.418 94.1782 346.132 94.3491 345.781V344.155H93.2871C91.627 344.155 90.7969 344.641 90.7969 345.612C90.7969 346.037 90.9385 346.369 91.2217 346.608C91.5049 346.848 91.8687 346.967 92.313 346.967ZM101.757 347.041C102.24 347.041 102.663 346.894 103.024 346.601C103.385 346.308 103.585 345.942 103.625 345.502H104.906C104.882 345.957 104.726 346.389 104.438 346.799C104.149 347.209 103.764 347.536 103.28 347.78C102.802 348.024 102.294 348.146 101.757 348.146C100.678 348.146 99.8184 347.788 99.1787 347.07C98.5439 346.347 98.2266 345.361 98.2266 344.111V343.884C98.2266 343.112 98.3682 342.426 98.6514 341.826C98.9346 341.225 99.3398 340.759 99.8672 340.427C100.399 340.095 101.027 339.929 101.75 339.929C102.638 339.929 103.375 340.195 103.961 340.727C104.552 341.259 104.867 341.95 104.906 342.8H103.625C103.585 342.287 103.39 341.867 103.039 341.54C102.692 341.208 102.262 341.042 101.75 341.042C101.061 341.042 100.526 341.291 100.146 341.789C99.7695 342.282 99.5815 342.998 99.5815 343.935V344.191C99.5815 345.104 99.7695 345.808 100.146 346.301C100.521 346.794 101.059 347.041 101.757 347.041ZM110.468 348.146C109.394 348.146 108.52 347.795 107.846 347.092C107.172 346.384 106.835 345.439 106.835 344.257V344.008C106.835 343.222 106.984 342.521 107.282 341.906C107.585 341.286 108.005 340.803 108.542 340.456C109.084 340.104 109.67 339.929 110.3 339.929C111.33 339.929 112.131 340.268 112.702 340.947C113.273 341.625 113.559 342.597 113.559 343.862V344.426H108.19C108.21 345.207 108.437 345.839 108.872 346.323C109.311 346.801 109.868 347.041 110.542 347.041C111.02 347.041 111.425 346.943 111.757 346.748C112.089 346.552 112.38 346.293 112.629 345.971L113.457 346.616C112.792 347.636 111.796 348.146 110.468 348.146ZM110.3 341.042C109.753 341.042 109.294 341.242 108.923 341.643C108.552 342.038 108.322 342.595 108.234 343.312H112.204V343.21C112.165 342.521 111.979 341.989 111.647 341.613C111.315 341.232 110.866 341.042 110.3 341.042ZM117.239 341.035C117.839 340.297 118.621 339.929 119.583 339.929C121.257 339.929 122.102 340.874 122.117 342.763V348H120.762V342.756C120.757 342.185 120.625 341.762 120.366 341.489C120.112 341.215 119.714 341.079 119.172 341.079C118.733 341.079 118.347 341.196 118.015 341.43C117.683 341.665 117.424 341.972 117.239 342.353V348H115.884V336.75H117.239V341.035ZM124.537 343.964C124.537 343.188 124.688 342.49 124.991 341.87C125.298 341.25 125.723 340.771 126.265 340.434C126.812 340.097 127.435 339.929 128.133 339.929C129.212 339.929 130.083 340.302 130.748 341.049C131.417 341.796 131.751 342.79 131.751 344.03V344.125C131.751 344.897 131.602 345.59 131.304 346.206C131.011 346.816 130.589 347.292 130.037 347.634C129.49 347.976 128.86 348.146 128.147 348.146C127.073 348.146 126.202 347.773 125.533 347.026C124.869 346.279 124.537 345.29 124.537 344.06V343.964ZM125.899 344.125C125.899 345.004 126.102 345.71 126.507 346.242C126.917 346.774 127.464 347.041 128.147 347.041C128.836 347.041 129.383 346.772 129.788 346.235C130.193 345.693 130.396 344.936 130.396 343.964C130.396 343.095 130.188 342.392 129.773 341.855C129.363 341.313 128.816 341.042 128.133 341.042C127.464 341.042 126.924 341.308 126.514 341.84C126.104 342.373 125.899 343.134 125.899 344.125ZM135.672 348H134.317V336.75H135.672V348ZM138.268 343.972C138.268 342.756 138.556 341.779 139.132 341.042C139.708 340.3 140.463 339.929 141.396 339.929C142.323 339.929 143.058 340.246 143.6 340.881V336.75H144.955V348H143.71L143.644 347.15C143.102 347.814 142.348 348.146 141.381 348.146C140.463 348.146 139.713 347.771 139.132 347.019C138.556 346.267 138.268 345.285 138.268 344.074V343.972ZM139.623 344.125C139.623 345.024 139.809 345.727 140.18 346.235C140.551 346.743 141.063 346.997 141.718 346.997C142.577 346.997 143.205 346.611 143.6 345.839V342.199C143.195 341.452 142.572 341.079 141.732 341.079C141.068 341.079 140.551 341.335 140.18 341.848C139.809 342.36 139.623 343.12 139.623 344.125ZM151.103 348.146C150.029 348.146 149.155 347.795 148.481 347.092C147.807 346.384 147.47 345.439 147.47 344.257V344.008C147.47 343.222 147.619 342.521 147.917 341.906C148.22 341.286 148.64 340.803 149.177 340.456C149.719 340.104 150.305 339.929 150.935 339.929C151.965 339.929 152.766 340.268 153.337 340.947C153.908 341.625 154.194 342.597 154.194 343.862V344.426H148.825C148.845 345.207 149.072 345.839 149.506 346.323C149.946 346.801 150.502 347.041 151.176 347.041C151.655 347.041 152.06 346.943 152.392 346.748C152.724 346.552 153.015 346.293 153.264 345.971L154.091 346.616C153.427 347.636 152.431 348.146 151.103 348.146ZM150.935 341.042C150.388 341.042 149.929 341.242 149.558 341.643C149.187 342.038 148.957 342.595 148.869 343.312H152.839V343.21C152.8 342.521 152.614 341.989 152.282 341.613C151.95 341.232 151.501 341.042 150.935 341.042ZM160.349 341.291C160.144 341.257 159.922 341.24 159.683 341.24C158.794 341.24 158.191 341.618 157.874 342.375V348H156.519V340.075H157.837L157.859 340.991C158.303 340.283 158.933 339.929 159.749 339.929C160.012 339.929 160.212 339.963 160.349 340.031V341.291ZM174.056 344.323C173.997 345.505 173.704 346.438 173.177 347.121C172.649 347.805 171.944 348.146 171.06 348.146C170.147 348.146 169.561 347.736 169.302 346.916C169.039 347.331 168.736 347.641 168.394 347.846C168.057 348.046 167.708 348.146 167.347 348.146C166.653 348.146 166.128 347.863 165.772 347.297C165.416 346.73 165.284 345.947 165.376 344.946C165.45 344.14 165.633 343.422 165.926 342.792C166.224 342.158 166.604 341.66 167.068 341.298C167.537 340.937 168.028 340.756 168.541 340.756C168.936 340.756 169.29 340.81 169.603 340.917C169.915 341.02 170.267 341.225 170.657 341.533L170.276 345.59C170.184 346.718 170.496 347.282 171.214 347.282C171.766 347.282 172.212 347.009 172.554 346.462C172.896 345.915 173.082 345.202 173.111 344.323C173.204 342.424 172.85 340.976 172.049 339.98C171.253 338.984 170.04 338.486 168.409 338.486C167.427 338.486 166.556 338.73 165.794 339.218C165.032 339.702 164.432 340.402 163.992 341.32C163.553 342.238 163.306 343.298 163.252 344.499C163.194 345.71 163.34 346.762 163.692 347.656C164.043 348.544 164.578 349.223 165.296 349.692C166.019 350.166 166.89 350.402 167.911 350.402C168.35 350.402 168.79 350.349 169.229 350.241C169.673 350.134 170.042 349.995 170.335 349.824L170.606 350.666C170.303 350.856 169.9 351.013 169.397 351.135C168.899 351.257 168.394 351.318 167.881 351.318C166.661 351.318 165.611 351.042 164.732 350.49C163.853 349.943 163.194 349.152 162.754 348.117C162.32 347.087 162.132 345.881 162.19 344.499C162.249 343.156 162.549 341.95 163.091 340.881C163.633 339.807 164.368 338.979 165.296 338.398C166.224 337.812 167.271 337.519 168.438 337.519C169.654 337.519 170.696 337.792 171.565 338.339C172.435 338.886 173.082 339.675 173.506 340.705C173.931 341.735 174.114 342.941 174.056 344.323ZM166.541 344.946C166.473 345.639 166.536 346.171 166.731 346.542C166.932 346.914 167.247 347.099 167.676 347.099C167.969 347.099 168.25 346.975 168.519 346.726C168.792 346.477 169.017 346.12 169.192 345.656L169.2 345.59L169.537 341.906C169.263 341.765 168.97 341.694 168.658 341.694C168.086 341.694 167.613 341.984 167.237 342.565C166.866 343.146 166.634 343.94 166.541 344.946ZM177.853 340.075L177.889 340.954C178.47 340.271 179.254 339.929 180.24 339.929C181.349 339.929 182.103 340.354 182.503 341.203C182.767 340.822 183.109 340.515 183.529 340.28C183.954 340.046 184.454 339.929 185.03 339.929C186.769 339.929 187.652 340.849 187.682 342.69V348H186.327V342.771C186.327 342.204 186.197 341.782 185.938 341.503C185.68 341.22 185.245 341.079 184.635 341.079C184.132 341.079 183.714 341.23 183.382 341.533C183.05 341.831 182.857 342.233 182.804 342.741V348H181.441V342.807C181.441 341.655 180.877 341.079 179.75 341.079C178.861 341.079 178.253 341.457 177.926 342.214V348H176.571V340.075H177.853ZM195.375 348C195.297 347.844 195.233 347.565 195.185 347.165C194.555 347.819 193.803 348.146 192.929 348.146C192.147 348.146 191.505 347.927 191.002 347.487C190.504 347.043 190.255 346.481 190.255 345.803C190.255 344.978 190.568 344.338 191.193 343.884C191.823 343.425 192.707 343.195 193.844 343.195H195.163V342.573C195.163 342.099 195.021 341.723 194.738 341.445C194.455 341.162 194.037 341.02 193.485 341.02C193.002 341.02 192.597 341.142 192.27 341.386C191.942 341.63 191.779 341.926 191.779 342.272H190.417C190.417 341.877 190.556 341.496 190.834 341.13C191.117 340.759 191.498 340.466 191.977 340.251C192.46 340.036 192.99 339.929 193.566 339.929C194.479 339.929 195.194 340.158 195.712 340.617C196.229 341.071 196.498 341.699 196.518 342.5V346.147C196.518 346.875 196.61 347.453 196.796 347.883V348H195.375ZM193.126 346.967C193.551 346.967 193.954 346.857 194.335 346.638C194.716 346.418 194.992 346.132 195.163 345.781V344.155H194.101C192.44 344.155 191.61 344.641 191.61 345.612C191.61 346.037 191.752 346.369 192.035 346.608C192.318 346.848 192.682 346.967 193.126 346.967ZM200.864 348H199.509V340.075H200.864V348ZM199.399 337.973C199.399 337.753 199.465 337.568 199.597 337.417C199.733 337.265 199.934 337.189 200.197 337.189C200.461 337.189 200.661 337.265 200.798 337.417C200.935 337.568 201.003 337.753 201.003 337.973C201.003 338.193 200.935 338.376 200.798 338.522C200.661 338.669 200.461 338.742 200.197 338.742C199.934 338.742 199.733 338.669 199.597 338.522C199.465 338.376 199.399 338.193 199.399 337.973ZM205.261 348H203.906V336.75H205.261V348ZM208.216 347.29C208.216 347.055 208.284 346.86 208.421 346.704C208.562 346.547 208.772 346.469 209.051 346.469C209.329 346.469 209.539 346.547 209.681 346.704C209.827 346.86 209.9 347.055 209.9 347.29C209.9 347.514 209.827 347.702 209.681 347.854C209.539 348.005 209.329 348.081 209.051 348.081C208.772 348.081 208.562 348.005 208.421 347.854C208.284 347.702 208.216 347.514 208.216 347.29ZM216.07 347.041C216.554 347.041 216.976 346.894 217.337 346.601C217.699 346.308 217.899 345.942 217.938 345.502H219.22C219.195 345.957 219.039 346.389 218.751 346.799C218.463 347.209 218.077 347.536 217.594 347.78C217.115 348.024 216.607 348.146 216.07 348.146C214.991 348.146 214.132 347.788 213.492 347.07C212.857 346.347 212.54 345.361 212.54 344.111V343.884C212.54 343.112 212.682 342.426 212.965 341.826C213.248 341.225 213.653 340.759 214.181 340.427C214.713 340.095 215.34 339.929 216.063 339.929C216.952 339.929 217.689 340.195 218.275 340.727C218.866 341.259 219.181 341.95 219.22 342.8H217.938C217.899 342.287 217.704 341.867 217.352 341.54C217.005 341.208 216.576 341.042 216.063 341.042C215.375 341.042 214.84 341.291 214.459 341.789C214.083 342.282 213.895 342.998 213.895 343.935V344.191C213.895 345.104 214.083 345.808 214.459 346.301C214.835 346.794 215.372 347.041 216.07 347.041ZM221.134 343.964C221.134 343.188 221.286 342.49 221.588 341.87C221.896 341.25 222.321 340.771 222.863 340.434C223.41 340.097 224.032 339.929 224.73 339.929C225.81 339.929 226.681 340.302 227.345 341.049C228.014 341.796 228.349 342.79 228.349 344.03V344.125C228.349 344.897 228.2 345.59 227.902 346.206C227.609 346.816 227.187 347.292 226.635 347.634C226.088 347.976 225.458 348.146 224.745 348.146C223.671 348.146 222.799 347.773 222.13 347.026C221.466 346.279 221.134 345.29 221.134 344.06V343.964ZM222.497 344.125C222.497 345.004 222.699 345.71 223.104 346.242C223.515 346.774 224.062 347.041 224.745 347.041C225.434 347.041 225.98 346.772 226.386 346.235C226.791 345.693 226.994 344.936 226.994 343.964C226.994 343.095 226.786 342.392 226.371 341.855C225.961 341.313 225.414 341.042 224.73 341.042C224.062 341.042 223.522 341.308 223.112 341.84C222.702 342.373 222.497 343.134 222.497 344.125ZM232.072 340.075L232.109 340.954C232.69 340.271 233.474 339.929 234.46 339.929C235.568 339.929 236.323 340.354 236.723 341.203C236.987 340.822 237.329 340.515 237.749 340.28C238.173 340.046 238.674 339.929 239.25 339.929C240.988 339.929 241.872 340.849 241.901 342.69V348H240.546V342.771C240.546 342.204 240.417 341.782 240.158 341.503C239.899 341.22 239.465 341.079 238.854 341.079C238.352 341.079 237.934 341.23 237.602 341.533C237.27 341.831 237.077 342.233 237.023 342.741V348H235.661V342.807C235.661 341.655 235.097 341.079 233.969 341.079C233.081 341.079 232.473 341.457 232.146 342.214V348H230.791V340.075H232.072Z" fill="white"/>
<circle cx="103.5" cy="439.5" r="7.5" fill="#C4C4C4"/>
<circle cx="82.5" cy="439.5" r="7.5" fill="#C4C4C4"/>
<circle cx="124.5" cy="439.5" r="7.5" fill="#C4C4C4"/>
<circle cx="145.5" cy="439.5" r="7.5" fill="#C4C4C4"/>
<circle cx="166.5" cy="439.5" r="7.5" fill="#C4C4C4"/>
<circle cx="187.5" cy="439.5" r="7.5" fill="#C4C4C4"/>
<path opacity="0.38" fill-rule="evenodd" clip-rule="evenodd" d="M261 501C261 497.134 264.134 494 268 494H288C291.866 494 295 497.134 295 501C295 504.866 291.866 508 288 508H268C264.134 508 261 504.866 261 501Z" fill="#1565C0"/>
<g filter="url(#filter1_ddd)">
<path fill-rule="evenodd" clip-rule="evenodd" d="M260 501C260 495.477 264.477 491 270 491C275.523 491 280 495.477 280 501C280 506.523 275.523 511 270 511C264.477 511 260 506.523 260 501Z" fill="#1565C0"/>
</g>
<path d="M147.283 501.891H145.218V506H143.365V495.336H147.115C148.345 495.336 149.295 495.612 149.964 496.164C150.633 496.715 150.967 497.514 150.967 498.559C150.967 499.271 150.794 499.87 150.447 500.353C150.105 500.832 149.627 501.2 149.012 501.459L151.407 505.905V506H149.422L147.283 501.891ZM145.218 500.404H147.122C147.747 500.404 148.235 500.248 148.587 499.936C148.938 499.618 149.114 499.186 149.114 498.639C149.114 498.068 148.951 497.626 148.624 497.313C148.301 497.001 147.818 496.84 147.173 496.83H145.218V500.404ZM156.793 506.146C155.665 506.146 154.75 505.792 154.046 505.084C153.348 504.372 152.999 503.424 152.999 502.243V502.023C152.999 501.232 153.15 500.526 153.453 499.906C153.761 499.281 154.19 498.795 154.742 498.449C155.294 498.102 155.909 497.929 156.588 497.929C157.667 497.929 158.5 498.273 159.085 498.961C159.676 499.65 159.972 500.624 159.972 501.884V502.602H154.793C154.847 503.256 155.064 503.773 155.445 504.154C155.831 504.535 156.314 504.726 156.896 504.726C157.711 504.726 158.375 504.396 158.888 503.737L159.847 504.652C159.53 505.126 159.105 505.495 158.573 505.758C158.045 506.017 157.452 506.146 156.793 506.146ZM156.581 499.357C156.092 499.357 155.697 499.528 155.394 499.87C155.096 500.211 154.906 500.688 154.823 501.298H158.214V501.166C158.175 500.57 158.016 500.121 157.738 499.818C157.459 499.511 157.074 499.357 156.581 499.357ZM163.783 498.075L163.834 498.903C164.391 498.253 165.153 497.929 166.12 497.929C167.179 497.929 167.904 498.334 168.295 499.145C168.871 498.334 169.682 497.929 170.727 497.929C171.601 497.929 172.25 498.17 172.675 498.654C173.104 499.137 173.324 499.85 173.334 500.792V506H171.554V500.844C171.554 500.341 171.444 499.972 171.225 499.738C171.005 499.503 170.641 499.386 170.133 499.386C169.728 499.386 169.396 499.496 169.137 499.716C168.883 499.931 168.705 500.214 168.603 500.565L168.61 506H166.83V500.785C166.806 499.853 166.33 499.386 165.402 499.386C164.689 499.386 164.184 499.677 163.886 500.258V506H162.106V498.075H163.783ZM179.401 506.146C178.273 506.146 177.358 505.792 176.655 505.084C175.957 504.372 175.607 503.424 175.607 502.243V502.023C175.607 501.232 175.759 500.526 176.062 499.906C176.369 499.281 176.799 498.795 177.351 498.449C177.902 498.102 178.518 497.929 179.196 497.929C180.275 497.929 181.108 498.273 181.694 498.961C182.285 499.65 182.58 500.624 182.58 501.884V502.602H177.402C177.456 503.256 177.673 503.773 178.054 504.154C178.439 504.535 178.923 504.726 179.504 504.726C180.319 504.726 180.983 504.396 181.496 503.737L182.456 504.652C182.138 505.126 181.713 505.495 181.181 505.758C180.654 506.017 180.061 506.146 179.401 506.146ZM179.189 499.357C178.701 499.357 178.305 499.528 178.002 499.87C177.705 500.211 177.514 500.688 177.431 501.298H180.822V501.166C180.783 500.57 180.625 500.121 180.346 499.818C180.068 499.511 179.682 499.357 179.189 499.357ZM186.392 498.075L186.443 498.903C187 498.253 187.761 497.929 188.728 497.929C189.788 497.929 190.513 498.334 190.903 499.145C191.479 498.334 192.29 497.929 193.335 497.929C194.209 497.929 194.858 498.17 195.283 498.654C195.713 499.137 195.933 499.85 195.942 500.792V506H194.163V500.844C194.163 500.341 194.053 499.972 193.833 499.738C193.613 499.503 193.25 499.386 192.742 499.386C192.336 499.386 192.004 499.496 191.746 499.716C191.492 499.931 191.313 500.214 191.211 500.565L191.218 506H189.438V500.785C189.414 499.853 188.938 499.386 188.01 499.386C187.297 499.386 186.792 499.677 186.494 500.258V506H184.714V498.075H186.392ZM205.474 502.118C205.474 503.349 205.198 504.328 204.646 505.055C204.1 505.783 203.345 506.146 202.383 506.146C201.456 506.146 200.733 505.812 200.215 505.143L200.127 506H198.516V494.75H200.296V498.837C200.809 498.231 201.5 497.929 202.369 497.929C203.335 497.929 204.095 498.288 204.646 499.005C205.198 499.723 205.474 500.727 205.474 502.016V502.118ZM203.694 501.964C203.694 501.105 203.543 500.46 203.24 500.031C202.938 499.601 202.498 499.386 201.922 499.386C201.15 499.386 200.608 499.723 200.296 500.397V503.664C200.613 504.352 201.16 504.696 201.937 504.696C202.493 504.696 202.923 504.489 203.226 504.074C203.528 503.659 203.685 503.031 203.694 502.191V501.964ZM211.212 506.146C210.084 506.146 209.168 505.792 208.465 505.084C207.767 504.372 207.418 503.424 207.418 502.243V502.023C207.418 501.232 207.569 500.526 207.872 499.906C208.18 499.281 208.609 498.795 209.161 498.449C209.713 498.102 210.328 497.929 211.007 497.929C212.086 497.929 212.918 498.273 213.504 498.961C214.095 499.65 214.391 500.624 214.391 501.884V502.602H209.212C209.266 503.256 209.483 503.773 209.864 504.154C210.25 504.535 210.733 504.726 211.314 504.726C212.13 504.726 212.794 504.396 213.307 503.737L214.266 504.652C213.949 505.126 213.524 505.495 212.992 505.758C212.464 506.017 211.871 506.146 211.212 506.146ZM211 499.357C210.511 499.357 210.116 499.528 209.813 499.87C209.515 500.211 209.325 500.688 209.242 501.298H212.633V501.166C212.594 500.57 212.435 500.121 212.157 499.818C211.878 499.511 211.493 499.357 211 499.357ZM220.678 499.701C220.443 499.662 220.202 499.643 219.953 499.643C219.137 499.643 218.588 499.955 218.305 500.58V506H216.525V498.075H218.224L218.268 498.961C218.698 498.273 219.293 497.929 220.055 497.929C220.309 497.929 220.519 497.963 220.685 498.031L220.678 499.701ZM228.446 498.075L228.498 498.903C229.054 498.253 229.816 497.929 230.783 497.929C231.842 497.929 232.567 498.334 232.958 499.145C233.534 498.334 234.345 497.929 235.39 497.929C236.264 497.929 236.913 498.17 237.338 498.654C237.768 499.137 237.987 499.85 237.997 500.792V506H236.217V500.844C236.217 500.341 236.107 499.972 235.888 499.738C235.668 499.503 235.304 499.386 234.796 499.386C234.391 499.386 234.059 499.496 233.8 499.716C233.546 499.931 233.368 500.214 233.266 500.565L233.273 506H231.493V500.785C231.469 499.853 230.993 499.386 230.065 499.386C229.352 499.386 228.847 499.677 228.549 500.258V506H226.769V498.075H228.446ZM244.064 506.146C242.937 506.146 242.021 505.792 241.318 505.084C240.62 504.372 240.271 503.424 240.271 502.243V502.023C240.271 501.232 240.422 500.526 240.725 499.906C241.032 499.281 241.462 498.795 242.014 498.449C242.565 498.102 243.181 497.929 243.859 497.929C244.938 497.929 245.771 498.273 246.357 498.961C246.948 499.65 247.243 500.624 247.243 501.884V502.602H242.065C242.119 503.256 242.336 503.773 242.717 504.154C243.103 504.535 243.586 504.726 244.167 504.726C244.982 504.726 245.646 504.396 246.159 503.737L247.119 504.652C246.801 505.126 246.376 505.495 245.844 505.758C245.317 506.017 244.724 506.146 244.064 506.146ZM243.852 499.357C243.364 499.357 242.968 499.528 242.666 499.87C242.368 500.211 242.177 500.688 242.094 501.298H245.485V501.166C245.446 500.57 245.288 500.121 245.009 499.818C244.731 499.511 244.345 499.357 243.852 499.357Z" fill="white"/>
<path fill-rule="evenodd" clip-rule="evenodd" d="M290 433C285 433 280.73 436.11 279 440.5C280.73 444.89 285 448 290 448C295 448 299.27 444.89 301 440.5C299.27 436.11 295 433 290 433ZM290 445.5C287.24 445.5 285 443.26 285 440.5C285 437.74 287.24 435.5 290 435.5C292.76 435.5 295 437.74 295 440.5C295 443.26 292.76 445.5 290 445.5ZM287 440.5C287 438.84 288.34 437.5 290 437.5C291.66 437.5 293 438.84 293 440.5C293 442.16 291.66 443.5 290 443.5C288.34 443.5 287 442.16 287 440.5Z" fill="#C4C4C4"/>
<path d="M140.016 236.969H154.059V239H137.594V210.562H140.016V236.969ZM156.852 228.121C156.852 226.09 157.242 224.26 158.023 222.633C158.818 221.005 159.931 219.742 161.363 218.844C162.809 217.932 164.443 217.477 166.266 217.477C169.078 217.477 171.357 218.466 173.102 220.445C174.846 222.411 175.719 225.022 175.719 228.277V228.766C175.719 230.81 175.322 232.652 174.527 234.293C173.746 235.921 172.639 237.177 171.207 238.062C169.775 238.948 168.141 239.391 166.305 239.391C163.505 239.391 161.227 238.408 159.469 236.441C157.724 234.462 156.852 231.845 156.852 228.59V228.121ZM159.195 228.766C159.195 231.292 159.846 233.368 161.148 234.996C162.464 236.611 164.182 237.418 166.305 237.418C168.414 237.418 170.12 236.611 171.422 234.996C172.737 233.368 173.395 231.227 173.395 228.57V228.121C173.395 226.507 173.095 225.029 172.496 223.688C171.897 222.346 171.057 221.311 169.977 220.582C168.896 219.84 167.659 219.469 166.266 219.469C164.182 219.469 162.483 220.289 161.168 221.93C159.853 223.557 159.195 225.693 159.195 228.336V228.766ZM179.625 228.238C179.625 224.931 180.354 222.314 181.812 220.387C183.284 218.447 185.276 217.477 187.789 217.477C190.667 217.477 192.854 218.622 194.352 220.914L194.469 217.867H196.656V238.57C196.656 241.292 195.895 243.447 194.371 245.035C192.848 246.624 190.784 247.418 188.18 247.418C186.708 247.418 185.302 247.086 183.961 246.422C182.633 245.771 181.585 244.898 180.816 243.805L182.125 242.398C183.779 244.43 185.745 245.445 188.023 245.445C189.977 245.445 191.5 244.866 192.594 243.707C193.688 242.561 194.254 240.966 194.293 238.922V236.266C192.796 238.349 190.615 239.391 187.75 239.391C185.302 239.391 183.336 238.414 181.852 236.461C180.367 234.508 179.625 231.871 179.625 228.551V228.238ZM181.988 228.648C181.988 231.344 182.529 233.473 183.609 235.035C184.69 236.585 186.214 237.359 188.18 237.359C191.057 237.359 193.095 236.07 194.293 233.492V223.668C193.746 222.314 192.958 221.285 191.93 220.582C190.901 219.866 189.664 219.508 188.219 219.508C186.253 219.508 184.723 220.283 183.629 221.832C182.535 223.368 181.988 225.641 181.988 228.648ZM215.094 239H212.75V217.867H215.094V239ZM212.34 211.754C212.34 211.311 212.483 210.94 212.77 210.641C213.056 210.328 213.447 210.172 213.941 210.172C214.436 210.172 214.827 210.328 215.113 210.641C215.413 210.94 215.562 211.311 215.562 211.754C215.562 212.197 215.413 212.568 215.113 212.867C214.827 213.167 214.436 213.316 213.941 213.316C213.447 213.316 213.056 213.167 212.77 212.867C212.483 212.568 212.34 212.197 212.34 211.754ZM223.688 217.867L223.766 221.48C224.56 220.178 225.549 219.189 226.734 218.512C227.919 217.822 229.228 217.477 230.66 217.477C232.926 217.477 234.612 218.115 235.719 219.391C236.826 220.667 237.385 222.581 237.398 225.133V239H235.074V225.113C235.061 223.225 234.658 221.819 233.863 220.895C233.082 219.97 231.826 219.508 230.094 219.508C228.648 219.508 227.366 219.964 226.246 220.875C225.139 221.773 224.319 222.991 223.785 224.527V239H221.461V217.867H223.688Z" fill="white"/>
</g>
<defs>
<filter id="filter0_ddd" x="91" y="746" width="192" height="42" filterUnits="userSpaceOnUse" color-interpolation-filters="sRGB">
<feFlood flood-opacity="0" result="BackgroundImageFix"/>
<feColorMatrix in="SourceAlpha" type="matrix" values="0 0 0 0 0 0 0 0 0 0 0 0 0 0 0 0 0 0 127 0"/>
<feOffset dy="1"/>
<feGaussianBlur stdDeviation="1.5"/>
<feColorMatrix type="matrix" values="0 0 0 0 0 0 0 0 0 0 0 0 0 0 0 0 0 0 0.2 0"/>
<feBlend mode="normal" in2="BackgroundImageFix" result="effect1_dropShadow"/>
<feColorMatrix in="SourceAlpha" type="matrix" values="0 0 0 0 0 0 0 0 0 0 0 0 0 0 0 0 0 0 127 0"/>
<feOffset dy="2"/>
<feGaussianBlur stdDeviation="1"/>
<feColorMatrix type="matrix" values="0 0 0 0 0 0 0 0 0 0 0 0 0 0 0 0 0 0 0.12 0"/>
<feBlend mode="normal" in2="effect1_dropShadow" result="effect2_dropShadow"/>
<feColorMatrix in="SourceAlpha" type="matrix" values="0 0 0 0 0 0 0 0 0 0 0 0 0 0 0 0 0 0 127 0"/>
<feOffset/>
<feGaussianBlur stdDeviation="1"/>
<feColorMatrix type="matrix" values="0 0 0 0 0 0 0 0 0 0 0 0 0 0 0 0 0 0 0.14 0"/>
<feBlend mode="normal" in2="effect2_dropShadow" result="effect3_dropShadow"/>
<feBlend mode="normal" in="SourceGraphic" in2="effect3_dropShadow" result="shape"/>
</filter>
<filter id="filter1_ddd" x="257" y="489" width="26" height="26" filterUnits="userSpaceOnUse" color-interpolation-filters="sRGB">
<feFlood flood-opacity="0" result="BackgroundImageFix"/>
<feColorMatrix in="SourceAlpha" type="matrix" values="0 0 0 0 0 0 0 0 0 0 0 0 0 0 0 0 0 0 127 0"/>
<feOffset dy="1"/>
<feGaussianBlur stdDeviation="1.5"/>
<feColorMatrix type="matrix" values="0 0 0 0 0 0 0 0 0 0 0 0 0 0 0 0 0 0 0.2 0"/>
<feBlend mode="normal" in2="BackgroundImageFix" result="effect1_dropShadow"/>
<feColorMatrix in="SourceAlpha" type="matrix" values="0 0 0 0 0 0 0 0 0 0 0 0 0 0 0 0 0 0 127 0"/>
<feOffset dy="2"/>
<feGaussianBlur stdDeviation="1"/>
<feColorMatrix type="matrix" values="0 0 0 0 0 0 0 0 0 0 0 0 0 0 0 0 0 0 0.12 0"/>
<feBlend mode="normal" in2="effect1_dropShadow" result="effect2_dropShadow"/>
<feColorMatrix in="SourceAlpha" type="matrix" values="0 0 0 0 0 0 0 0 0 0 0 0 0 0 0 0 0 0 127 0"/>
<feOffset/>
<feGaussianBlur stdDeviation="1"/>
<feColorMatrix type="matrix" values="0 0 0 0 0 0 0 0 0 0 0 0 0 0 0 0 0 0 0.14 0"/>
<feBlend mode="normal" in2="effect2_dropShadow" result="effect3_dropShadow"/>
<feBlend mode="normal" in="SourceGraphic" in2="effect3_dropShadow" result="shape"/>
</filter>
<clipPath id="clip0">
<rect width="375" height="812" fill="white"/>
</clipPath>
</defs>
</svg>
